<svg width="362" height="210" viewBox="0 0 362 210" fill="none" xmlns="http://www.w3.org/2000/svg">
<line x1="36" y1="131.5" x2="319.028" y2="131.5" stroke="black" stroke-opacity="0.3" stroke-dasharray="4 4"/>
<line x1="36" y1="52.5" x2="319.028" y2="52.5" stroke="black" stroke-opacity="0.3" stroke-dasharray="4 4"/>
<line x1="35.7311" y1="131.037" x2="318.731" y2="52.0368" stroke="#00CC1B" stroke-width="2"/>
<path d="M36.7071 0.292893C36.3166 -0.0976311 35.6834 -0.0976311 35.2929 0.292893L28.9289 6.65685C28.5384 7.04738 28.5384 7.68054 28.9289 8.07107C29.3195 8.46159 29.9526 8.46159 30.3431 8.07107L36 2.41421L41.6569 8.07107C42.0474 8.46159 42.6805 8.46159 43.0711 8.07107C43.4616 7.68054 43.4616 7.04738 43.0711 6.65685L36.7071 0.292893ZM36 202H37L37 1H36H35L35 202H36Z" fill="black"/>
<path d="M336.707 202.707C337.098 202.317 337.098 201.683 336.707 201.293L330.343 194.929C329.953 194.538 329.319 194.538 328.929 194.929C328.538 195.319 328.538 195.953 328.929 196.343L334.586 202L328.929 207.657C328.538 208.047 328.538 208.681 328.929 209.071C329.319 209.462 329.953 209.462 330.343 209.071L336.707 202.707ZM36 202V203H336V202V201H36V202Z" fill="black"/>
<path d="M325.293 132.707C325.683 133.098 326.317 133.098 326.707 132.707L333.071 126.343C333.462 125.953 333.462 125.319 333.071 124.929C332.681 124.538 332.047 124.538 331.657 124.929L326 130.586L320.343 124.929C319.953 124.538 319.319 124.538 318.929 124.929C318.538 125.319 318.538 125.953 318.929 126.343L325.293 132.707ZM326 53H325V132H326H327V53H326Z" fill="black"/>
<path d="M326.707 51.2929C326.317 50.9024 325.683 50.9024 325.293 51.2929L318.929 57.6569C318.538 58.0474 318.538 58.6805 318.929 59.0711C319.319 59.4616 319.953 59.4616 320.343 59.0711L326 53.4142L331.657 59.0711C332.047 59.4616 332.681 59.4616 333.071 59.0711C333.462 58.6805 333.462 58.0474 333.071 57.6569L326.707 51.2929ZM326 132H327V52H326H325V132H326Z" fill="black"/>
<path d="M344.64 82.828C344.04 82.828 343.544 82.736 343.152 82.552C342.76 82.368 342.456 82.12 342.24 81.808C342.024 81.488 341.872 81.124 341.784 80.716L342.876 80.332C342.916 80.5 342.972 80.672 343.044 80.848C343.116 81.024 343.208 81.184 343.32 81.328C343.44 81.472 343.592 81.588 343.776 81.676C343.96 81.764 344.192 81.808 344.472 81.808C344.768 81.808 345.02 81.728 345.228 81.568C345.436 81.408 345.6 81.2 345.72 80.944C345.848 80.68 345.94 80.4 345.996 80.104C346.052 79.808 346.08 79.524 346.08 79.252C346.08 79.02 346.044 78.82 345.972 78.652C345.908 78.484 345.804 78.356 345.66 78.268C345.524 78.172 345.344 78.124 345.12 78.124C344.912 78.124 344.724 78.16 344.556 78.232C344.388 78.304 344.236 78.412 344.1 78.556C343.972 78.692 343.852 78.86 343.74 79.06H342.804L343.908 74.176H348.552L347.988 75.664H344.34L344.892 74.416L344.004 78.328L343.692 78.484C343.844 78.212 344.02 77.976 344.22 77.776C344.42 77.568 344.652 77.412 344.916 77.308C345.18 77.196 345.488 77.14 345.84 77.14C346.296 77.14 346.688 77.228 347.016 77.404C347.344 77.58 347.596 77.832 347.772 78.16C347.956 78.488 348.048 78.884 348.048 79.348C348.048 79.836 347.976 80.292 347.832 80.716C347.688 81.132 347.472 81.5 347.184 81.82C346.904 82.132 346.552 82.376 346.128 82.552C345.704 82.736 345.208 82.828 344.64 82.828ZM352.147 74.536C352.147 74.392 352.131 74.272 352.099 74.176C352.067 74.08 352.019 74.008 351.955 73.96C351.891 73.912 351.803 73.888 351.691 73.888C351.555 73.888 351.431 73.948 351.319 74.068C351.215 74.18 351.123 74.328 351.043 74.512C350.963 74.696 350.895 74.892 350.839 75.1C350.791 75.308 350.751 75.512 350.719 75.712C350.695 75.912 350.683 76.084 350.683 76.228C350.683 76.372 350.699 76.492 350.731 76.588C350.763 76.684 350.811 76.756 350.875 76.804C350.939 76.852 351.023 76.876 351.127 76.876C351.263 76.876 351.387 76.82 351.499 76.708C351.611 76.588 351.703 76.436 351.775 76.252C351.855 76.068 351.923 75.872 351.979 75.664C352.035 75.456 352.075 75.252 352.099 75.052C352.131 74.852 352.147 74.68 352.147 74.536ZM349.363 75.928C349.363 75.608 349.411 75.284 349.507 74.956C349.603 74.62 349.747 74.316 349.939 74.044C350.131 73.764 350.375 73.54 350.671 73.372C350.967 73.196 351.311 73.108 351.703 73.108C352.079 73.108 352.395 73.18 352.651 73.324C352.915 73.46 353.115 73.66 353.251 73.924C353.395 74.18 353.467 74.484 353.467 74.836C353.467 75.156 353.419 75.48 353.323 75.808C353.227 76.136 353.079 76.44 352.879 76.72C352.687 77 352.443 77.228 352.147 77.404C351.859 77.572 351.515 77.656 351.115 77.656C350.747 77.656 350.431 77.588 350.167 77.452C349.903 77.308 349.703 77.108 349.567 76.852C349.431 76.588 349.363 76.28 349.363 75.928ZM356.323 79.096C356.323 78.944 356.307 78.824 356.275 78.736C356.243 78.64 356.195 78.568 356.131 78.52C356.067 78.472 355.983 78.448 355.879 78.448C355.743 78.448 355.619 78.508 355.507 78.628C355.403 78.74 355.311 78.888 355.231 79.072C355.151 79.256 355.083 79.452 355.027 79.66C354.971 79.868 354.931 80.072 354.907 80.272C354.883 80.472 354.871 80.644 354.871 80.788C354.871 80.932 354.883 81.052 354.907 81.148C354.939 81.244 354.987 81.316 355.051 81.364C355.115 81.412 355.203 81.436 355.315 81.436C355.451 81.436 355.571 81.38 355.675 81.268C355.787 81.148 355.883 80.996 355.963 80.812C356.043 80.628 356.111 80.432 356.167 80.224C356.223 80.016 356.263 79.812 356.287 79.612C356.311 79.412 356.323 79.24 356.323 79.096ZM353.551 80.476C353.551 80.164 353.595 79.844 353.683 79.516C353.779 79.18 353.923 78.872 354.115 78.592C354.315 78.312 354.559 78.088 354.847 77.92C355.143 77.752 355.491 77.668 355.891 77.668C356.267 77.668 356.583 77.74 356.839 77.884C357.103 78.02 357.303 78.22 357.439 78.484C357.575 78.74 357.643 79.044 357.643 79.396C357.643 79.716 357.595 80.04 357.499 80.368C357.403 80.696 357.259 81 357.067 81.28C356.875 81.56 356.631 81.788 356.335 81.964C356.039 82.132 355.691 82.216 355.291 82.216C354.923 82.216 354.607 82.144 354.343 82C354.087 81.856 353.891 81.656 353.755 81.4C353.619 81.144 353.551 80.836 353.551 80.476ZM356.899 73.48H358.063L349.939 82H348.775L356.899 73.48Z" fill="black"/>
<path d="M339.451 114V112.881L342.217 109.91C342.498 109.59 342.719 109.314 342.879 109.084C343.039 108.85 343.152 108.637 343.219 108.445C343.289 108.25 343.324 108.057 343.324 107.865C343.324 107.533 343.229 107.252 343.037 107.021C342.85 106.791 342.572 106.676 342.205 106.676C341.811 106.676 341.512 106.805 341.309 107.062C341.105 107.316 341.004 107.668 341.004 108.117H339.34L339.328 108.082C339.316 107.566 339.426 107.104 339.656 106.693C339.891 106.279 340.227 105.951 340.664 105.709C341.105 105.467 341.625 105.346 342.223 105.346C342.809 105.346 343.311 105.451 343.729 105.662C344.15 105.869 344.475 106.16 344.701 106.535C344.928 106.91 345.041 107.344 345.041 107.836C345.041 108.176 344.98 108.496 344.859 108.797C344.738 109.094 344.549 109.408 344.291 109.74C344.033 110.072 343.701 110.453 343.295 110.883L341.637 112.664L341.648 112.693H343.857L343.945 111.879H345.27V114H339.451ZM346.84 116.133L345.996 115.676C346.148 115.402 346.266 115.119 346.348 114.826C346.43 114.537 346.471 114.213 346.471 113.854V112.576H348.006L348 113.771C348 114.229 347.887 114.664 347.66 115.078C347.438 115.496 347.164 115.848 346.84 116.133ZM351.82 114.123C351.301 114.123 350.824 114.027 350.391 113.836C349.961 113.641 349.619 113.363 349.365 113.004C349.111 112.645 348.99 112.215 349.002 111.715L349.014 111.686L350.654 111.604C350.654 111.982 350.762 112.279 350.977 112.494C351.191 112.705 351.473 112.811 351.82 112.811C352.219 112.811 352.514 112.668 352.705 112.383C352.896 112.098 352.992 111.729 352.992 111.275C352.992 110.783 352.891 110.389 352.688 110.092C352.484 109.795 352.182 109.646 351.779 109.646C351.455 109.646 351.205 109.707 351.029 109.828C350.857 109.949 350.734 110.113 350.66 110.32L349.148 110.221L349.641 105.469H354.551V107.414H353.496L353.344 106.84H351.047L350.807 108.809C350.912 108.73 351.033 108.662 351.17 108.604C351.307 108.541 351.453 108.492 351.609 108.457C351.77 108.418 351.939 108.398 352.119 108.398C352.666 108.387 353.131 108.496 353.514 108.727C353.9 108.953 354.193 109.281 354.393 109.711C354.596 110.141 354.697 110.658 354.697 111.264C354.697 111.811 354.586 112.301 354.363 112.734C354.145 113.164 353.82 113.504 353.391 113.754C352.965 114 352.441 114.123 351.82 114.123ZM359.408 114.123C358.771 114.123 358.211 114.004 357.727 113.766C357.246 113.527 356.871 113.189 356.602 112.752C356.336 112.314 356.203 111.799 356.203 111.205C356.203 111.197 356.203 111.189 356.203 111.182C356.203 111.174 356.203 111.166 356.203 111.158H355.348V110.262H356.203V109.383H355.348V108.486H356.203V108.41C356.203 107.789 356.336 107.25 356.602 106.793C356.871 106.336 357.244 105.98 357.721 105.727C358.201 105.473 358.76 105.346 359.396 105.346C359.631 105.346 359.859 105.361 360.082 105.393C360.309 105.424 360.555 105.469 360.82 105.527L360.697 106.869C360.494 106.807 360.281 106.758 360.059 106.723C359.836 106.684 359.615 106.664 359.396 106.664C358.936 106.664 358.572 106.818 358.307 107.127C358.045 107.436 357.914 107.859 357.914 108.398V108.486H360.422V109.383H357.914V110.262H360.422V111.158H357.914V111.205C357.918 111.549 357.979 111.84 358.096 112.078C358.213 112.316 358.383 112.498 358.605 112.623C358.828 112.748 359.096 112.811 359.408 112.811C359.861 112.811 360.291 112.744 360.697 112.611L360.82 113.941C360.359 114.062 359.889 114.123 359.408 114.123Z" fill="black"/>
<path d="M12.2109 137.123C11.6914 137.123 11.2148 137.027 10.7812 136.836C10.3516 136.641 10.0098 136.363 9.75586 136.004C9.50195 135.645 9.38086 135.215 9.39258 134.715L9.4043 134.686L11.0449 134.604C11.0449 134.982 11.1523 135.279 11.3672 135.494C11.582 135.705 11.8633 135.811 12.2109 135.811C12.6094 135.811 12.9043 135.668 13.0957 135.383C13.2871 135.098 13.3828 134.729 13.3828 134.275C13.3828 133.783 13.2812 133.389 13.0781 133.092C12.875 132.795 12.5723 132.646 12.1699 132.646C11.8457 132.646 11.5957 132.707 11.4199 132.828C11.248 132.949 11.125 133.113 11.0508 133.32L9.53906 133.221L10.0312 128.469H14.9414V130.414H13.8867L13.7344 129.84H11.4375L11.1973 131.809C11.3027 131.73 11.4238 131.662 11.5605 131.604C11.6973 131.541 11.8438 131.492 12 131.457C12.1602 131.418 12.3301 131.398 12.5098 131.398C13.0566 131.387 13.5215 131.496 13.9043 131.727C14.291 131.953 14.584 132.281 14.7832 132.711C14.9863 133.141 15.0879 133.658 15.0879 134.264C15.0879 134.811 14.9766 135.301 14.7539 135.734C14.5352 136.164 14.2109 136.504 13.7812 136.754C13.3555 137 12.832 137.123 12.2109 137.123ZM18.8613 137.123C17.9707 137.123 17.2656 136.832 16.7461 136.25C16.2266 135.664 15.9668 134.807 15.9668 133.678V131.797C15.9668 130.672 16.2246 129.816 16.7402 129.23C17.2598 128.641 17.9629 128.346 18.8496 128.346C19.7324 128.346 20.4336 128.641 20.9531 129.23C21.4766 129.816 21.7383 130.672 21.7383 131.797V133.678C21.7383 134.807 21.4785 135.664 20.959 136.25C20.4434 136.832 19.7441 137.123 18.8613 137.123ZM18.8613 135.811C19.2441 135.811 19.5352 135.654 19.7344 135.342C19.9336 135.029 20.0332 134.529 20.0332 133.842V131.621C20.0332 130.941 19.9316 130.445 19.7285 130.133C19.5254 129.82 19.2324 129.664 18.8496 129.664C18.4629 129.664 18.1699 129.82 17.9707 130.133C17.7715 130.445 17.6719 130.941 17.6719 131.621V133.842C17.6719 134.529 17.7715 135.029 17.9707 135.342C18.1738 135.654 18.4707 135.811 18.8613 135.811ZM26.6543 137.123C26.0176 137.123 25.457 137.004 24.9727 136.766C24.4922 136.527 24.1172 136.189 23.8477 135.752C23.582 135.314 23.4492 134.799 23.4492 134.205C23.4492 134.197 23.4492 134.189 23.4492 134.182C23.4492 134.174 23.4492 134.166 23.4492 134.158H22.5938V133.262H23.4492V132.383H22.5938V131.486H23.4492V131.41C23.4492 130.789 23.582 130.25 23.8477 129.793C24.1172 129.336 24.4902 128.98 24.9668 128.727C25.4473 128.473 26.0059 128.346 26.6426 128.346C26.877 128.346 27.1055 128.361 27.3281 128.393C27.5547 128.424 27.8008 128.469 28.0664 128.527L27.9434 129.869C27.7402 129.807 27.5273 129.758 27.3047 129.723C27.082 129.684 26.8613 129.664 26.6426 129.664C26.1816 129.664 25.8184 129.818 25.5527 130.127C25.291 130.436 25.1602 130.859 25.1602 131.398V131.486H27.668V132.383H25.1602V133.262H27.668V134.158H25.1602V134.205C25.1641 134.549 25.2246 134.84 25.3418 135.078C25.459 135.316 25.6289 135.498 25.8516 135.623C26.0742 135.748 26.3418 135.811 26.6543 135.811C27.1074 135.811 27.5371 135.744 27.9434 135.611L28.0664 136.941C27.6055 137.062 27.1348 137.123 26.6543 137.123Z" fill="black"/>
<path d="M3.21094 57.123C2.69141 57.123 2.21484 57.0273 1.78125 56.8359C1.35156 56.6406 1.00977 56.3633 0.755859 56.0039C0.501953 55.6445 0.380859 55.2148 0.392578 54.7148L0.404297 54.6855L2.04492 54.6035C2.04492 54.9824 2.15234 55.2793 2.36719 55.4941C2.58203 55.7051 2.86328 55.8105 3.21094 55.8105C3.60938 55.8105 3.9043 55.668 4.0957 55.3828C4.28711 55.0977 4.38281 54.7285 4.38281 54.2754C4.38281 53.7832 4.28125 53.3887 4.07812 53.0918C3.875 52.7949 3.57227 52.6465 3.16992 52.6465C2.8457 52.6465 2.5957 52.707 2.41992 52.8281C2.24805 52.9492 2.125 53.1133 2.05078 53.3203L0.539062 53.2207L1.03125 48.4688H5.94141V50.4141H4.88672L4.73438 49.8398H2.4375L2.19727 51.8086C2.30273 51.7305 2.42383 51.6621 2.56055 51.6035C2.69727 51.541 2.84375 51.4922 3 51.457C3.16016 51.418 3.33008 51.3984 3.50977 51.3984C4.05664 51.3867 4.52148 51.4961 4.9043 51.7266C5.29102 51.9531 5.58398 52.2812 5.7832 52.7109C5.98633 53.1406 6.08789 53.6582 6.08789 54.2637C6.08789 54.8105 5.97656 55.3008 5.75391 55.7344C5.53516 56.1641 5.21094 56.5039 4.78125 56.7539C4.35547 57 3.83203 57.123 3.21094 57.123ZM6.84961 57V55.8809L9.61523 52.9102C9.89648 52.5898 10.1172 52.3145 10.2773 52.084C10.4375 51.8496 10.5508 51.6367 10.6172 51.4453C10.6875 51.25 10.7227 51.0566 10.7227 50.8652C10.7227 50.5332 10.627 50.252 10.4355 50.0215C10.248 49.791 9.9707 49.6758 9.60352 49.6758C9.20898 49.6758 8.91016 49.8047 8.70703 50.0625C8.50391 50.3164 8.40234 50.668 8.40234 51.1172H6.73828L6.72656 51.082C6.71484 50.5664 6.82422 50.1035 7.05469 49.6934C7.28906 49.2793 7.625 48.9512 8.0625 48.709C8.50391 48.4668 9.02344 48.3457 9.62109 48.3457C10.207 48.3457 10.709 48.4512 11.127 48.6621C11.5488 48.8691 11.873 49.1602 12.0996 49.5352C12.3262 49.9102 12.4395 50.3438 12.4395 50.8359C12.4395 51.1758 12.3789 51.4961 12.2578 51.7969C12.1367 52.0938 11.9473 52.4082 11.6895 52.7402C11.4316 53.0723 11.0996 53.4531 10.6934 53.8828L9.03516 55.6641L9.04688 55.6934H11.2559L11.3438 54.8789H12.668V57H6.84961ZM14.2383 59.1328L13.3945 58.6758C13.5469 58.4023 13.6641 58.1191 13.7461 57.8262C13.8281 57.5371 13.8691 57.2129 13.8691 56.8535V55.5762H15.4043L15.3984 56.7715C15.3984 57.2285 15.2852 57.6641 15.0586 58.0781C14.8359 58.4961 14.5625 58.8477 14.2383 59.1328ZM19.2188 57.123C18.6992 57.123 18.2227 57.0273 17.7891 56.8359C17.3594 56.6406 17.0176 56.3633 16.7637 56.0039C16.5098 55.6445 16.3887 55.2148 16.4004 54.7148L16.4121 54.6855L18.0527 54.6035C18.0527 54.9824 18.1602 55.2793 18.375 55.4941C18.5898 55.7051 18.8711 55.8105 19.2188 55.8105C19.6172 55.8105 19.9121 55.668 20.1035 55.3828C20.2949 55.0977 20.3906 54.7285 20.3906 54.2754C20.3906 53.7832 20.2891 53.3887 20.0859 53.0918C19.8828 52.7949 19.5801 52.6465 19.1777 52.6465C18.8535 52.6465 18.6035 52.707 18.4277 52.8281C18.2559 52.9492 18.1328 53.1133 18.0586 53.3203L16.5469 53.2207L17.0391 48.4688H21.9492V50.4141H20.8945L20.7422 49.8398H18.4453L18.2051 51.8086C18.3105 51.7305 18.4316 51.6621 18.5684 51.6035C18.7051 51.541 18.8516 51.4922 19.0078 51.457C19.168 51.418 19.3379 51.3984 19.5176 51.3984C20.0645 51.3867 20.5293 51.4961 20.9121 51.7266C21.2988 51.9531 21.5918 52.2812 21.791 52.7109C21.9941 53.1406 22.0957 53.6582 22.0957 54.2637C22.0957 54.8105 21.9844 55.3008 21.7617 55.7344C21.543 56.1641 21.2188 56.5039 20.7891 56.7539C20.3633 57 19.8398 57.123 19.2188 57.123ZM26.8066 57.123C26.1699 57.123 25.6094 57.0039 25.125 56.7656C24.6445 56.5273 24.2695 56.1895 24 55.752C23.7344 55.3145 23.6016 54.7988 23.6016 54.2051C23.6016 54.1973 23.6016 54.1895 23.6016 54.1816C23.6016 54.1738 23.6016 54.166 23.6016 54.1582H22.7461V53.2617H23.6016V52.3828H22.7461V51.4863H23.6016V51.4102C23.6016 50.7891 23.7344 50.25 24 49.793C24.2695 49.3359 24.6426 48.9805 25.1191 48.7266C25.5996 48.4727 26.1582 48.3457 26.7949 48.3457C27.0293 48.3457 27.2578 48.3613 27.4805 48.3926C27.707 48.4238 27.9531 48.4688 28.2188 48.5273L28.0957 49.8691C27.8926 49.8066 27.6797 49.7578 27.457 49.7227C27.2344 49.6836 27.0137 49.6641 26.7949 49.6641C26.334 49.6641 25.9707 49.8184 25.7051 50.127C25.4434 50.4355 25.3125 50.8594 25.3125 51.3984V51.4863H27.8203V52.3828H25.3125V53.2617H27.8203V54.1582H25.3125V54.2051C25.3164 54.5488 25.377 54.8398 25.4941 55.0781C25.6113 55.3164 25.7812 55.498 26.0039 55.623C26.2266 55.748 26.4941 55.8105 26.8066 55.8105C27.2598 55.8105 27.6895 55.7441 28.0957 55.6113L28.2188 56.9414C27.7578 57.0625 27.2871 57.123 26.8066 57.123Z" fill="black"/>
</svg>
