<svg width="369" height="210" viewBox="0 0 369 210" fill="none" xmlns="http://www.w3.org/2000/svg">
<line x1="39" y1="131.5" x2="322.028" y2="131.5" stroke="black" stroke-opacity="0.3" stroke-dasharray="4 4"/>
<line x1="39" y1="52.5" x2="322.028" y2="52.5" stroke="black" stroke-opacity="0.3" stroke-dasharray="4 4"/>
<line x1="39.2689" y1="52.0368" x2="322.269" y2="131.037" stroke="#00CC1B" stroke-width="2"/>
<path d="M39.7071 0.292893C39.3166 -0.0976311 38.6834 -0.0976311 38.2929 0.292893L31.9289 6.65685C31.5384 7.04738 31.5384 7.68054 31.9289 8.07107C32.3195 8.46159 32.9526 8.46159 33.3431 8.07107L39 2.41421L44.6569 8.07107C45.0474 8.46159 45.6805 8.46159 46.0711 8.07107C46.4616 7.68054 46.4616 7.04738 46.0711 6.65685L39.7071 0.292893ZM39 202H40L40 1H39H38L38 202H39Z" fill="black"/>
<path d="M339.707 202.707C340.098 202.317 340.098 201.683 339.707 201.293L333.343 194.929C332.953 194.538 332.319 194.538 331.929 194.929C331.538 195.319 331.538 195.953 331.929 196.343L337.586 202L331.929 207.657C331.538 208.047 331.538 208.681 331.929 209.071C332.319 209.462 332.953 209.462 333.343 209.071L339.707 202.707ZM39 202V203H339V202V201H39V202Z" fill="black"/>
<path d="M328.293 132.707C328.683 133.098 329.317 133.098 329.707 132.707L336.071 126.343C336.462 125.953 336.462 125.319 336.071 124.929C335.681 124.538 335.047 124.538 334.657 124.929L329 130.586L323.343 124.929C322.953 124.538 322.319 124.538 321.929 124.929C321.538 125.319 321.538 125.953 321.929 126.343L328.293 132.707ZM329 53H328V132H329H330V53H329Z" fill="black"/>
<path d="M329.707 51.2929C329.317 50.9024 328.683 50.9024 328.293 51.2929L321.929 57.6569C321.538 58.0474 321.538 58.6805 321.929 59.0711C322.319 59.4616 322.953 59.4616 323.343 59.0711L329 53.4142L334.657 59.0711C335.047 59.4616 335.681 59.4616 336.071 59.0711C336.462 58.6805 336.462 58.0474 336.071 57.6569L329.707 51.2929ZM329 132H330V52H329H328V132H329Z" fill="black"/>
<path d="M345.068 77.752H349.316L348.968 79.3H344.732L345.068 77.752ZM352.652 82.828C352.052 82.828 351.556 82.736 351.164 82.552C350.772 82.368 350.468 82.12 350.252 81.808C350.036 81.488 349.884 81.124 349.796 80.716L350.888 80.332C350.928 80.5 350.984 80.672 351.056 80.848C351.128 81.024 351.22 81.184 351.332 81.328C351.452 81.472 351.604 81.588 351.788 81.676C351.972 81.764 352.204 81.808 352.484 81.808C352.78 81.808 353.032 81.728 353.24 81.568C353.448 81.408 353.612 81.2 353.732 80.944C353.86 80.68 353.952 80.4 354.008 80.104C354.064 79.808 354.092 79.524 354.092 79.252C354.092 79.02 354.056 78.82 353.984 78.652C353.92 78.484 353.816 78.356 353.672 78.268C353.536 78.172 353.356 78.124 353.132 78.124C352.924 78.124 352.736 78.16 352.568 78.232C352.4 78.304 352.248 78.412 352.112 78.556C351.984 78.692 351.864 78.86 351.752 79.06H350.816L351.92 74.176H356.564L356 75.664H352.352L352.904 74.416L352.016 78.328L351.704 78.484C351.856 78.212 352.032 77.976 352.232 77.776C352.432 77.568 352.664 77.412 352.928 77.308C353.192 77.196 353.5 77.14 353.852 77.14C354.308 77.14 354.7 77.228 355.028 77.404C355.356 77.58 355.608 77.832 355.784 78.16C355.968 78.488 356.06 78.884 356.06 79.348C356.06 79.836 355.988 80.292 355.844 80.716C355.7 81.132 355.484 81.5 355.196 81.82C354.916 82.132 354.564 82.376 354.14 82.552C353.716 82.736 353.22 82.828 352.652 82.828ZM360.159 74.536C360.159 74.392 360.143 74.272 360.111 74.176C360.079 74.08 360.031 74.008 359.967 73.96C359.903 73.912 359.815 73.888 359.703 73.888C359.567 73.888 359.443 73.948 359.331 74.068C359.227 74.18 359.135 74.328 359.055 74.512C358.975 74.696 358.907 74.892 358.851 75.1C358.803 75.308 358.763 75.512 358.731 75.712C358.707 75.912 358.695 76.084 358.695 76.228C358.695 76.372 358.711 76.492 358.743 76.588C358.775 76.684 358.823 76.756 358.887 76.804C358.951 76.852 359.035 76.876 359.139 76.876C359.275 76.876 359.399 76.82 359.511 76.708C359.623 76.588 359.715 76.436 359.787 76.252C359.867 76.068 359.935 75.872 359.991 75.664C360.047 75.456 360.087 75.252 360.111 75.052C360.143 74.852 360.159 74.68 360.159 74.536ZM357.375 75.928C357.375 75.608 357.423 75.284 357.519 74.956C357.615 74.62 357.759 74.316 357.951 74.044C358.143 73.764 358.387 73.54 358.683 73.372C358.979 73.196 359.323 73.108 359.715 73.108C360.091 73.108 360.407 73.18 360.663 73.324C360.927 73.46 361.127 73.66 361.263 73.924C361.407 74.18 361.479 74.484 361.479 74.836C361.479 75.156 361.431 75.48 361.335 75.808C361.239 76.136 361.091 76.44 360.891 76.72C360.699 77 360.455 77.228 360.159 77.404C359.871 77.572 359.527 77.656 359.127 77.656C358.759 77.656 358.443 77.588 358.179 77.452C357.915 77.308 357.715 77.108 357.579 76.852C357.443 76.588 357.375 76.28 357.375 75.928ZM364.335 79.096C364.335 78.944 364.319 78.824 364.287 78.736C364.255 78.64 364.207 78.568 364.143 78.52C364.079 78.472 363.995 78.448 363.891 78.448C363.755 78.448 363.631 78.508 363.519 78.628C363.415 78.74 363.323 78.888 363.243 79.072C363.163 79.256 363.095 79.452 363.039 79.66C362.983 79.868 362.943 80.072 362.919 80.272C362.895 80.472 362.883 80.644 362.883 80.788C362.883 80.932 362.895 81.052 362.919 81.148C362.951 81.244 362.999 81.316 363.063 81.364C363.127 81.412 363.215 81.436 363.327 81.436C363.463 81.436 363.583 81.38 363.687 81.268C363.799 81.148 363.895 80.996 363.975 80.812C364.055 80.628 364.123 80.432 364.179 80.224C364.235 80.016 364.275 79.812 364.299 79.612C364.323 79.412 364.335 79.24 364.335 79.096ZM361.563 80.476C361.563 80.164 361.607 79.844 361.695 79.516C361.791 79.18 361.935 78.872 362.127 78.592C362.327 78.312 362.571 78.088 362.859 77.92C363.155 77.752 363.503 77.668 363.903 77.668C364.279 77.668 364.595 77.74 364.851 77.884C365.115 78.02 365.315 78.22 365.451 78.484C365.587 78.74 365.655 79.044 365.655 79.396C365.655 79.716 365.607 80.04 365.511 80.368C365.415 80.696 365.271 81 365.079 81.28C364.887 81.56 364.643 81.788 364.347 81.964C364.051 82.132 363.703 82.216 363.303 82.216C362.935 82.216 362.619 82.144 362.355 82C362.099 81.856 361.903 81.656 361.767 81.4C361.631 81.144 361.563 80.836 361.563 80.476ZM364.911 73.48H366.075L357.951 82H356.787L364.911 73.48Z" fill="black"/>
<path d="M344.768 107.012V105.693H348.072V107.012H344.768ZM351.992 110.123C351.473 110.123 350.996 110.027 350.562 109.836C350.133 109.641 349.791 109.363 349.537 109.004C349.283 108.645 349.162 108.215 349.174 107.715L349.186 107.686L350.826 107.604C350.826 107.982 350.934 108.279 351.148 108.494C351.363 108.705 351.645 108.811 351.992 108.811C352.391 108.811 352.686 108.668 352.877 108.383C353.068 108.098 353.164 107.729 353.164 107.275C353.164 106.783 353.062 106.389 352.859 106.092C352.656 105.795 352.354 105.646 351.951 105.646C351.627 105.646 351.377 105.707 351.201 105.828C351.029 105.949 350.906 106.113 350.832 106.32L349.32 106.221L349.812 101.469H354.723V103.414H353.668L353.516 102.84H351.219L350.979 104.809C351.084 104.73 351.205 104.662 351.342 104.604C351.479 104.541 351.625 104.492 351.781 104.457C351.941 104.418 352.111 104.398 352.291 104.398C352.838 104.387 353.303 104.496 353.686 104.727C354.072 104.953 354.365 105.281 354.564 105.711C354.768 106.141 354.869 106.658 354.869 107.264C354.869 107.811 354.758 108.301 354.535 108.734C354.316 109.164 353.992 109.504 353.562 109.754C353.137 110 352.613 110.123 351.992 110.123ZM358.643 110.123C357.752 110.123 357.047 109.832 356.527 109.25C356.008 108.664 355.748 107.807 355.748 106.678V104.797C355.748 103.672 356.006 102.816 356.521 102.23C357.041 101.641 357.744 101.346 358.631 101.346C359.514 101.346 360.215 101.641 360.734 102.23C361.258 102.816 361.52 103.672 361.52 104.797V106.678C361.52 107.807 361.26 108.664 360.74 109.25C360.225 109.832 359.525 110.123 358.643 110.123ZM358.643 108.811C359.025 108.811 359.316 108.654 359.516 108.342C359.715 108.029 359.814 107.529 359.814 106.842V104.621C359.814 103.941 359.713 103.445 359.51 103.133C359.307 102.82 359.014 102.664 358.631 102.664C358.244 102.664 357.951 102.82 357.752 103.133C357.553 103.445 357.453 103.941 357.453 104.621V106.842C357.453 107.529 357.553 108.029 357.752 108.342C357.955 108.654 358.252 108.811 358.643 108.811ZM366.436 110.123C365.799 110.123 365.238 110.004 364.754 109.766C364.273 109.527 363.898 109.189 363.629 108.752C363.363 108.314 363.23 107.799 363.23 107.205C363.23 107.197 363.23 107.189 363.23 107.182C363.23 107.174 363.23 107.166 363.23 107.158H362.375V106.262H363.23V105.383H362.375V104.486H363.23V104.41C363.23 103.789 363.363 103.25 363.629 102.793C363.898 102.336 364.271 101.98 364.748 101.727C365.229 101.473 365.787 101.346 366.424 101.346C366.658 101.346 366.887 101.361 367.109 101.393C367.336 101.424 367.582 101.469 367.848 101.527L367.725 102.869C367.521 102.807 367.309 102.758 367.086 102.723C366.863 102.684 366.643 102.664 366.424 102.664C365.963 102.664 365.6 102.818 365.334 103.127C365.072 103.436 364.941 103.859 364.941 104.398V104.486H367.449V105.383H364.941V106.262H367.449V107.158H364.941V107.205C364.945 107.549 365.006 107.84 365.123 108.078C365.24 108.316 365.41 108.498 365.633 108.623C365.855 108.748 366.123 108.811 366.436 108.811C366.889 108.811 367.318 108.744 367.725 108.611L367.848 109.941C367.387 110.062 366.916 110.123 366.436 110.123Z" fill="black"/>
<path d="M8.93555 137.123C8.63867 137.123 8.33203 137.092 8.01562 137.029C7.70312 136.971 7.41406 136.883 7.14844 136.766L7.3418 135.529C7.58789 135.619 7.83984 135.689 8.09766 135.74C8.35938 135.787 8.61523 135.811 8.86523 135.811C9.36133 135.811 9.75195 135.641 10.0371 135.301C10.3223 134.961 10.4688 134.432 10.4766 133.713L10.4648 133.584C10.2734 133.83 10.043 134.018 9.77344 134.146C9.50781 134.271 9.21484 134.334 8.89453 134.334C8.39062 134.334 7.94727 134.217 7.56445 133.982C7.18555 133.744 6.89062 133.406 6.67969 132.969C6.47266 132.527 6.36914 132.002 6.36914 131.393C6.36914 130.818 6.49219 130.301 6.73828 129.84C6.98828 129.379 7.32812 129.016 7.75781 128.75C8.19141 128.48 8.68359 128.346 9.23438 128.346C9.81641 128.346 10.3281 128.48 10.7695 128.75C11.2109 129.02 11.5547 129.41 11.8008 129.922C12.0469 130.434 12.1699 131.051 12.1699 131.773V133.625C12.1699 134.359 12.0312 134.988 11.7539 135.512C11.4805 136.035 11.0996 136.436 10.6113 136.713C10.127 136.986 9.56836 137.123 8.93555 137.123ZM9.26367 133.08C9.52539 133.08 9.75977 133.027 9.9668 132.922C10.1738 132.812 10.3398 132.668 10.4648 132.488V131.574C10.4648 130.945 10.3555 130.471 10.1367 130.15C9.91797 129.826 9.62109 129.664 9.24609 129.664C9.01953 129.664 8.81836 129.742 8.64258 129.898C8.4668 130.051 8.32812 130.26 8.22656 130.525C8.12891 130.787 8.08008 131.076 8.08008 131.393C8.08008 131.736 8.12305 132.035 8.20898 132.289C8.29883 132.543 8.43164 132.738 8.60742 132.875C8.7832 133.012 9.00195 133.08 9.26367 133.08ZM15.9023 137.123C15.3828 137.123 14.9062 137.027 14.4727 136.836C14.043 136.641 13.7012 136.363 13.4473 136.004C13.1934 135.645 13.0723 135.215 13.084 134.715L13.0957 134.686L14.7363 134.604C14.7363 134.982 14.8438 135.279 15.0586 135.494C15.2734 135.705 15.5547 135.811 15.9023 135.811C16.3008 135.811 16.5957 135.668 16.7871 135.383C16.9785 135.098 17.0742 134.729 17.0742 134.275C17.0742 133.783 16.9727 133.389 16.7695 133.092C16.5664 132.795 16.2637 132.646 15.8613 132.646C15.5371 132.646 15.2871 132.707 15.1113 132.828C14.9395 132.949 14.8164 133.113 14.7422 133.32L13.2305 133.221L13.7227 128.469H18.6328V130.414H17.5781L17.4258 129.84H15.1289L14.8887 131.809C14.9941 131.73 15.1152 131.662 15.252 131.604C15.3887 131.541 15.5352 131.492 15.6914 131.457C15.8516 131.418 16.0215 131.398 16.2012 131.398C16.748 131.387 17.2129 131.496 17.5957 131.727C17.9824 131.953 18.2754 132.281 18.4746 132.711C18.6777 133.141 18.7793 133.658 18.7793 134.264C18.7793 134.811 18.668 135.301 18.4453 135.734C18.2266 136.164 17.9023 136.504 17.4727 136.754C17.0469 137 16.5234 137.123 15.9023 137.123ZM22.5527 137.123C21.6621 137.123 20.957 136.832 20.4375 136.25C19.918 135.664 19.6582 134.807 19.6582 133.678V131.797C19.6582 130.672 19.916 129.816 20.4316 129.23C20.9512 128.641 21.6543 128.346 22.541 128.346C23.4238 128.346 24.125 128.641 24.6445 129.23C25.168 129.816 25.4297 130.672 25.4297 131.797V133.678C25.4297 134.807 25.1699 135.664 24.6504 136.25C24.1348 136.832 23.4355 137.123 22.5527 137.123ZM22.5527 135.811C22.9355 135.811 23.2266 135.654 23.4258 135.342C23.625 135.029 23.7246 134.529 23.7246 133.842V131.621C23.7246 130.941 23.623 130.445 23.4199 130.133C23.2168 129.82 22.9238 129.664 22.541 129.664C22.1543 129.664 21.8613 129.82 21.6621 130.133C21.4629 130.445 21.3633 130.941 21.3633 131.621V133.842C21.3633 134.529 21.4629 135.029 21.6621 135.342C21.8652 135.654 22.1621 135.811 22.5527 135.811ZM30.3457 137.123C29.709 137.123 29.1484 137.004 28.6641 136.766C28.1836 136.527 27.8086 136.189 27.5391 135.752C27.2734 135.314 27.1406 134.799 27.1406 134.205C27.1406 134.197 27.1406 134.189 27.1406 134.182C27.1406 134.174 27.1406 134.166 27.1406 134.158H26.2852V133.262H27.1406V132.383H26.2852V131.486H27.1406V131.41C27.1406 130.789 27.2734 130.25 27.5391 129.793C27.8086 129.336 28.1816 128.98 28.6582 128.727C29.1387 128.473 29.6973 128.346 30.334 128.346C30.5684 128.346 30.7969 128.361 31.0195 128.393C31.2461 128.424 31.4922 128.469 31.7578 128.527L31.6348 129.869C31.4316 129.807 31.2188 129.758 30.9961 129.723C30.7734 129.684 30.5527 129.664 30.334 129.664C29.873 129.664 29.5098 129.818 29.2441 130.127C28.9824 130.436 28.8516 130.859 28.8516 131.398V131.486H31.3594V132.383H28.8516V133.262H31.3594V134.158H28.8516V134.205C28.8555 134.549 28.916 134.84 29.0332 135.078C29.1504 135.316 29.3203 135.498 29.543 135.623C29.7656 135.748 30.0332 135.811 30.3457 135.811C30.7988 135.811 31.2285 135.744 31.6348 135.611L31.7578 136.941C31.2969 137.062 30.8262 137.123 30.3457 137.123Z" fill="black"/>
<path d="M0.380859 57V55.9746L1.82227 55.7988V50.0215H0.363281V49.043L3.52734 48.4688V55.7988L4.96875 55.9746V57H0.380859ZM8.77148 57.123C7.88086 57.123 7.17578 56.832 6.65625 56.25C6.13672 55.6641 5.87695 54.8066 5.87695 53.6777V51.7969C5.87695 50.6719 6.13477 49.8164 6.65039 49.2305C7.16992 48.6406 7.87305 48.3457 8.75977 48.3457C9.64258 48.3457 10.3438 48.6406 10.8633 49.2305C11.3867 49.8164 11.6484 50.6719 11.6484 51.7969V53.6777C11.6484 54.8066 11.3887 55.6641 10.8691 56.25C10.3535 56.832 9.6543 57.123 8.77148 57.123ZM8.77148 55.8105C9.1543 55.8105 9.44531 55.6543 9.64453 55.3418C9.84375 55.0293 9.94336 54.5293 9.94336 53.8418V51.6211C9.94336 50.9414 9.8418 50.4453 9.63867 50.1328C9.43555 49.8203 9.14258 49.6641 8.75977 49.6641C8.37305 49.6641 8.08008 49.8203 7.88086 50.1328C7.68164 50.4453 7.58203 50.9414 7.58203 51.6211V53.8418C7.58203 54.5293 7.68164 55.0293 7.88086 55.3418C8.08398 55.6543 8.38086 55.8105 8.77148 55.8105ZM15.627 57.123C14.7363 57.123 14.0312 56.832 13.5117 56.25C12.9922 55.6641 12.7324 54.8066 12.7324 53.6777V51.7969C12.7324 50.6719 12.9902 49.8164 13.5059 49.2305C14.0254 48.6406 14.7285 48.3457 15.6152 48.3457C16.498 48.3457 17.1992 48.6406 17.7188 49.2305C18.2422 49.8164 18.5039 50.6719 18.5039 51.7969V53.6777C18.5039 54.8066 18.2441 55.6641 17.7246 56.25C17.209 56.832 16.5098 57.123 15.627 57.123ZM15.627 55.8105C16.0098 55.8105 16.3008 55.6543 16.5 55.3418C16.6992 55.0293 16.7988 54.5293 16.7988 53.8418V51.6211C16.7988 50.9414 16.6973 50.4453 16.4941 50.1328C16.291 49.8203 15.998 49.6641 15.6152 49.6641C15.2285 49.6641 14.9355 49.8203 14.7363 50.1328C14.5371 50.4453 14.4375 50.9414 14.4375 51.6211V53.8418C14.4375 54.5293 14.5371 55.0293 14.7363 55.3418C14.9395 55.6543 15.2363 55.8105 15.627 55.8105ZM22.4824 57.123C21.5918 57.123 20.8867 56.832 20.3672 56.25C19.8477 55.6641 19.5879 54.8066 19.5879 53.6777V51.7969C19.5879 50.6719 19.8457 49.8164 20.3613 49.2305C20.8809 48.6406 21.584 48.3457 22.4707 48.3457C23.3535 48.3457 24.0547 48.6406 24.5742 49.2305C25.0977 49.8164 25.3594 50.6719 25.3594 51.7969V53.6777C25.3594 54.8066 25.0996 55.6641 24.5801 56.25C24.0645 56.832 23.3652 57.123 22.4824 57.123ZM22.4824 55.8105C22.8652 55.8105 23.1562 55.6543 23.3555 55.3418C23.5547 55.0293 23.6543 54.5293 23.6543 53.8418V51.6211C23.6543 50.9414 23.5527 50.4453 23.3496 50.1328C23.1465 49.8203 22.8535 49.6641 22.4707 49.6641C22.084 49.6641 21.791 49.8203 21.5918 50.1328C21.3926 50.4453 21.293 50.9414 21.293 51.6211V53.8418C21.293 54.5293 21.3926 55.0293 21.5918 55.3418C21.7949 55.6543 22.0918 55.8105 22.4824 55.8105ZM30.2754 57.123C29.6387 57.123 29.0781 57.0039 28.5938 56.7656C28.1133 56.5273 27.7383 56.1895 27.4688 55.752C27.2031 55.3145 27.0703 54.7988 27.0703 54.2051C27.0703 54.1973 27.0703 54.1895 27.0703 54.1816C27.0703 54.1738 27.0703 54.166 27.0703 54.1582H26.2148V53.2617H27.0703V52.3828H26.2148V51.4863H27.0703V51.4102C27.0703 50.7891 27.2031 50.25 27.4688 49.793C27.7383 49.3359 28.1113 48.9805 28.5879 48.7266C29.0684 48.4727 29.627 48.3457 30.2637 48.3457C30.498 48.3457 30.7266 48.3613 30.9492 48.3926C31.1758 48.4238 31.4219 48.4688 31.6875 48.5273L31.5645 49.8691C31.3613 49.8066 31.1484 49.7578 30.9258 49.7227C30.7031 49.6836 30.4824 49.6641 30.2637 49.6641C29.8027 49.6641 29.4395 49.8184 29.1738 50.127C28.9121 50.4355 28.7812 50.8594 28.7812 51.3984V51.4863H31.2891V52.3828H28.7812V53.2617H31.2891V54.1582H28.7812V54.2051C28.7852 54.5488 28.8457 54.8398 28.9629 55.0781C29.0801 55.3164 29.25 55.498 29.4727 55.623C29.6953 55.748 29.9629 55.8105 30.2754 55.8105C30.7285 55.8105 31.1582 55.7441 31.5645 55.6113L31.6875 56.9414C31.2266 57.0625 30.7559 57.123 30.2754 57.123Z" fill="black"/>
</svg>
