<svg width="369" height="210" viewBox="0 0 369 210" fill="none" xmlns="http://www.w3.org/2000/svg">
<line x1="36" y1="131.5" x2="319.028" y2="131.5" stroke="black" stroke-opacity="0.3" stroke-dasharray="4 4"/>
<line x1="36" y1="52.5" x2="319.028" y2="52.5" stroke="black" stroke-opacity="0.3" stroke-dasharray="4 4"/>
<line x1="35.7311" y1="131.037" x2="318.731" y2="52.0368" stroke="#00CC1B" stroke-width="2"/>
<path d="M36.7071 0.292893C36.3166 -0.0976311 35.6834 -0.0976311 35.2929 0.292893L28.9289 6.65685C28.5384 7.04738 28.5384 7.68054 28.9289 8.07107C29.3195 8.46159 29.9526 8.46159 30.3431 8.07107L36 2.41421L41.6569 8.07107C42.0474 8.46159 42.6805 8.46159 43.0711 8.07107C43.4616 7.68054 43.4616 7.04738 43.0711 6.65685L36.7071 0.292893ZM36 202H37L37 1H36H35L35 202H36Z" fill="black"/>
<path d="M336.707 202.707C337.098 202.317 337.098 201.683 336.707 201.293L330.343 194.929C329.953 194.538 329.319 194.538 328.929 194.929C328.538 195.319 328.538 195.953 328.929 196.343L334.586 202L328.929 207.657C328.538 208.047 328.538 208.681 328.929 209.071C329.319 209.462 329.953 209.462 330.343 209.071L336.707 202.707ZM36 202V203H336V202V201H36V202Z" fill="black"/>
<path d="M325.293 132.707C325.683 133.098 326.317 133.098 326.707 132.707L333.071 126.343C333.462 125.953 333.462 125.319 333.071 124.929C332.681 124.538 332.047 124.538 331.657 124.929L326 130.586L320.343 124.929C319.953 124.538 319.319 124.538 318.929 124.929C318.538 125.319 318.538 125.953 318.929 126.343L325.293 132.707ZM326 53H325V132H326H327V53H326Z" fill="black"/>
<path d="M326.707 51.2929C326.317 50.9024 325.683 50.9024 325.293 51.2929L318.929 57.6569C318.538 58.0474 318.538 58.6805 318.929 59.0711C319.319 59.4616 319.953 59.4616 320.343 59.0711L326 53.4142L331.657 59.0711C332.047 59.4616 332.681 59.4616 333.071 59.0711C333.462 58.6805 333.462 58.0474 333.071 57.6569L326.707 51.2929ZM326 132H327V52H326H325V132H326Z" fill="black"/>
<path d="M343.224 82.644C343.192 82.78 343.22 82.888 343.308 82.968C343.396 83.04 343.532 83.088 343.716 83.112C343.908 83.136 344.132 83.148 344.388 83.148H344.712L344.52 84H339.108L339.3 83.148H339.816C340.064 83.148 340.284 83.136 340.476 83.112C340.668 83.088 340.824 83.04 340.944 82.968C341.072 82.888 341.152 82.78 341.184 82.644L342.432 77.136L342.672 77.016C342.504 77.384 342.292 77.676 342.036 77.892C341.788 78.1 341.5 78.248 341.172 78.336C340.852 78.424 340.496 78.468 340.104 78.468L340.392 77.184C340.728 77.184 341.028 77.164 341.292 77.124C341.556 77.076 341.792 77.012 342 76.932C342.208 76.844 342.396 76.74 342.564 76.62C342.732 76.492 342.888 76.344 343.032 76.176H344.7L343.224 82.644ZM348.475 84.132C348.163 84.132 347.875 84.092 347.611 84.012C347.355 83.932 347.123 83.812 346.915 83.652C346.707 83.484 346.531 83.288 346.387 83.064C346.251 82.832 346.143 82.568 346.063 82.272C345.991 81.976 345.955 81.652 345.955 81.3C345.955 80.86 345.999 80.4 346.087 79.92C346.183 79.432 346.323 78.96 346.507 78.504C346.699 78.04 346.943 77.62 347.239 77.244C347.535 76.868 347.887 76.568 348.295 76.344C348.703 76.12 349.175 76.008 349.711 76.008C350.023 76.008 350.307 76.052 350.563 76.14C350.827 76.22 351.059 76.34 351.259 76.5C351.467 76.66 351.639 76.856 351.775 77.088C351.919 77.312 352.027 77.572 352.099 77.868C352.179 78.164 352.219 78.492 352.219 78.852C352.219 79.284 352.171 79.744 352.075 80.232C351.987 80.712 351.847 81.184 351.655 81.648C351.471 82.112 351.231 82.532 350.935 82.908C350.647 83.276 350.299 83.572 349.891 83.796C349.483 84.02 349.011 84.132 348.475 84.132ZM348.487 83.172C348.663 83.172 348.823 83.12 348.967 83.016C349.119 82.912 349.255 82.744 349.375 82.512C349.503 82.28 349.627 81.976 349.747 81.6C349.867 81.216 349.987 80.748 350.107 80.196C350.195 79.836 350.263 79.52 350.311 79.248C350.359 78.968 350.391 78.724 350.407 78.516C350.431 78.308 350.443 78.128 350.443 77.976C350.443 77.752 350.415 77.568 350.359 77.424C350.311 77.272 350.231 77.16 350.119 77.088C350.015 77.016 349.871 76.98 349.687 76.98C349.511 76.98 349.351 77.032 349.207 77.136C349.063 77.24 348.927 77.408 348.799 77.64C348.671 77.872 348.547 78.176 348.427 78.552C348.315 78.928 348.199 79.392 348.079 79.944C347.991 80.304 347.923 80.624 347.875 80.904C347.827 81.176 347.791 81.416 347.767 81.624C347.743 81.832 347.731 82.012 347.731 82.164C347.731 82.388 347.755 82.576 347.803 82.728C347.859 82.872 347.943 82.984 348.055 83.064C348.167 83.136 348.311 83.172 348.487 83.172ZM355.19 84.132C354.878 84.132 354.59 84.092 354.326 84.012C354.07 83.932 353.838 83.812 353.63 83.652C353.422 83.484 353.246 83.288 353.102 83.064C352.966 82.832 352.858 82.568 352.778 82.272C352.706 81.976 352.67 81.652 352.67 81.3C352.67 80.86 352.714 80.4 352.802 79.92C352.898 79.432 353.038 78.96 353.222 78.504C353.414 78.04 353.658 77.62 353.954 77.244C354.25 76.868 354.602 76.568 355.01 76.344C355.418 76.12 355.89 76.008 356.426 76.008C356.738 76.008 357.022 76.052 357.278 76.14C357.542 76.22 357.774 76.34 357.974 76.5C358.182 76.66 358.354 76.856 358.49 77.088C358.634 77.312 358.742 77.572 358.814 77.868C358.894 78.164 358.934 78.492 358.934 78.852C358.934 79.284 358.886 79.744 358.79 80.232C358.702 80.712 358.562 81.184 358.37 81.648C358.186 82.112 357.946 82.532 357.65 82.908C357.362 83.276 357.014 83.572 356.606 83.796C356.198 84.02 355.726 84.132 355.19 84.132ZM355.202 83.172C355.378 83.172 355.538 83.12 355.682 83.016C355.834 82.912 355.97 82.744 356.09 82.512C356.218 82.28 356.342 81.976 356.462 81.6C356.582 81.216 356.702 80.748 356.822 80.196C356.91 79.836 356.978 79.52 357.026 79.248C357.074 78.968 357.106 78.724 357.122 78.516C357.146 78.308 357.158 78.128 357.158 77.976C357.158 77.752 357.13 77.568 357.074 77.424C357.026 77.272 356.946 77.16 356.834 77.088C356.73 77.016 356.586 76.98 356.402 76.98C356.226 76.98 356.066 77.032 355.922 77.136C355.778 77.24 355.642 77.408 355.514 77.64C355.386 77.872 355.262 78.176 355.142 78.552C355.03 78.928 354.914 79.392 354.794 79.944C354.706 80.304 354.638 80.624 354.59 80.904C354.542 81.176 354.506 81.416 354.482 81.624C354.458 81.832 354.446 82.012 354.446 82.164C354.446 82.388 354.47 82.576 354.518 82.728C354.574 82.872 354.658 82.984 354.77 83.064C354.882 83.136 355.026 83.172 355.202 83.172ZM362.577 76.536C362.577 76.392 362.561 76.272 362.529 76.176C362.497 76.08 362.449 76.008 362.385 75.96C362.321 75.912 362.233 75.888 362.121 75.888C361.985 75.888 361.861 75.948 361.749 76.068C361.645 76.18 361.553 76.328 361.473 76.512C361.393 76.696 361.325 76.892 361.269 77.1C361.221 77.308 361.181 77.512 361.149 77.712C361.125 77.912 361.113 78.084 361.113 78.228C361.113 78.372 361.129 78.492 361.161 78.588C361.193 78.684 361.241 78.756 361.305 78.804C361.369 78.852 361.453 78.876 361.557 78.876C361.693 78.876 361.817 78.82 361.929 78.708C362.041 78.588 362.133 78.436 362.205 78.252C362.285 78.068 362.353 77.872 362.409 77.664C362.465 77.456 362.505 77.252 362.529 77.052C362.561 76.852 362.577 76.68 362.577 76.536ZM359.793 77.928C359.793 77.608 359.841 77.284 359.937 76.956C360.033 76.62 360.177 76.316 360.369 76.044C360.561 75.764 360.805 75.54 361.101 75.372C361.397 75.196 361.741 75.108 362.133 75.108C362.509 75.108 362.825 75.18 363.081 75.324C363.345 75.46 363.545 75.66 363.681 75.924C363.825 76.18 363.897 76.484 363.897 76.836C363.897 77.156 363.849 77.48 363.753 77.808C363.657 78.136 363.509 78.44 363.309 78.72C363.117 79 362.873 79.228 362.577 79.404C362.289 79.572 361.945 79.656 361.545 79.656C361.177 79.656 360.861 79.588 360.597 79.452C360.333 79.308 360.133 79.108 359.997 78.852C359.861 78.588 359.793 78.28 359.793 77.928ZM366.753 81.096C366.753 80.944 366.737 80.824 366.705 80.736C366.673 80.64 366.625 80.568 366.561 80.52C366.497 80.472 366.413 80.448 366.309 80.448C366.173 80.448 366.049 80.508 365.937 80.628C365.833 80.74 365.741 80.888 365.661 81.072C365.581 81.256 365.513 81.452 365.457 81.66C365.401 81.868 365.361 82.072 365.337 82.272C365.313 82.472 365.301 82.644 365.301 82.788C365.301 82.932 365.313 83.052 365.337 83.148C365.369 83.244 365.417 83.316 365.481 83.364C365.545 83.412 365.633 83.436 365.745 83.436C365.881 83.436 366.001 83.38 366.105 83.268C366.217 83.148 366.313 82.996 366.393 82.812C366.473 82.628 366.541 82.432 366.597 82.224C366.653 82.016 366.693 81.812 366.717 81.612C366.741 81.412 366.753 81.24 366.753 81.096ZM363.981 82.476C363.981 82.164 364.025 81.844 364.113 81.516C364.209 81.18 364.353 80.872 364.545 80.592C364.745 80.312 364.989 80.088 365.277 79.92C365.573 79.752 365.921 79.668 366.321 79.668C366.697 79.668 367.013 79.74 367.269 79.884C367.533 80.02 367.733 80.22 367.869 80.484C368.005 80.74 368.073 81.044 368.073 81.396C368.073 81.716 368.025 82.04 367.929 82.368C367.833 82.696 367.689 83 367.497 83.28C367.305 83.56 367.061 83.788 366.765 83.964C366.469 84.132 366.121 84.216 365.721 84.216C365.353 84.216 365.037 84.144 364.773 84C364.517 83.856 364.321 83.656 364.185 83.4C364.049 83.144 363.981 82.836 363.981 82.476ZM367.329 75.48H368.493L360.369 84H359.205L367.329 75.48Z" fill="black"/>
<path d="M346.211 109.123C345.691 109.123 345.215 109.027 344.781 108.836C344.352 108.641 344.01 108.363 343.756 108.004C343.502 107.645 343.381 107.215 343.393 106.715L343.404 106.686L345.045 106.604C345.045 106.982 345.152 107.279 345.367 107.494C345.582 107.705 345.863 107.811 346.211 107.811C346.609 107.811 346.904 107.668 347.096 107.383C347.287 107.098 347.383 106.729 347.383 106.275C347.383 105.783 347.281 105.389 347.078 105.092C346.875 104.795 346.572 104.646 346.17 104.646C345.846 104.646 345.596 104.707 345.42 104.828C345.248 104.949 345.125 105.113 345.051 105.32L343.539 105.221L344.031 100.469H348.941V102.414H347.887L347.734 101.84H345.438L345.197 103.809C345.303 103.73 345.424 103.662 345.561 103.604C345.697 103.541 345.844 103.492 346 103.457C346.16 103.418 346.33 103.398 346.51 103.398C347.057 103.387 347.521 103.496 347.904 103.727C348.291 103.953 348.584 104.281 348.783 104.711C348.986 105.141 349.088 105.658 349.088 106.264C349.088 106.811 348.977 107.301 348.754 107.734C348.535 108.164 348.211 108.504 347.781 108.754C347.355 109 346.832 109.123 346.211 109.123ZM352.861 109.123C351.971 109.123 351.266 108.832 350.746 108.25C350.227 107.664 349.967 106.807 349.967 105.678V103.797C349.967 102.672 350.225 101.816 350.74 101.23C351.26 100.641 351.963 100.346 352.85 100.346C353.732 100.346 354.434 100.641 354.953 101.23C355.477 101.816 355.738 102.672 355.738 103.797V105.678C355.738 106.807 355.479 107.664 354.959 108.25C354.443 108.832 353.744 109.123 352.861 109.123ZM352.861 107.811C353.244 107.811 353.535 107.654 353.734 107.342C353.934 107.029 354.033 106.529 354.033 105.842V103.621C354.033 102.941 353.932 102.445 353.729 102.133C353.525 101.82 353.232 101.664 352.85 101.664C352.463 101.664 352.17 101.82 351.971 102.133C351.771 102.445 351.672 102.941 351.672 103.621V105.842C351.672 106.529 351.771 107.029 351.971 107.342C352.174 107.654 352.471 107.811 352.861 107.811ZM360.654 109.123C360.018 109.123 359.457 109.004 358.973 108.766C358.492 108.527 358.117 108.189 357.848 107.752C357.582 107.314 357.449 106.799 357.449 106.205C357.449 106.197 357.449 106.189 357.449 106.182C357.449 106.174 357.449 106.166 357.449 106.158H356.594V105.262H357.449V104.383H356.594V103.486H357.449V103.41C357.449 102.789 357.582 102.25 357.848 101.793C358.117 101.336 358.49 100.98 358.967 100.727C359.447 100.473 360.006 100.346 360.643 100.346C360.877 100.346 361.105 100.361 361.328 100.393C361.555 100.424 361.801 100.469 362.066 100.527L361.943 101.869C361.74 101.807 361.527 101.758 361.305 101.723C361.082 101.684 360.861 101.664 360.643 101.664C360.182 101.664 359.818 101.818 359.553 102.127C359.291 102.436 359.16 102.859 359.16 103.398V103.486H361.668V104.383H359.16V105.262H361.668V106.158H359.16V106.205C359.164 106.549 359.225 106.84 359.342 107.078C359.459 107.316 359.629 107.498 359.852 107.623C360.074 107.748 360.342 107.811 360.654 107.811C361.107 107.811 361.537 107.744 361.943 107.611L362.066 108.941C361.605 109.062 361.135 109.123 360.654 109.123Z" fill="black"/>
<path d="M12.2109 137.123C11.6914 137.123 11.2148 137.027 10.7812 136.836C10.3516 136.641 10.0098 136.363 9.75586 136.004C9.50195 135.645 9.38086 135.215 9.39258 134.715L9.4043 134.686L11.0449 134.604C11.0449 134.982 11.1523 135.279 11.3672 135.494C11.582 135.705 11.8633 135.811 12.2109 135.811C12.6094 135.811 12.9043 135.668 13.0957 135.383C13.2871 135.098 13.3828 134.729 13.3828 134.275C13.3828 133.783 13.2812 133.389 13.0781 133.092C12.875 132.795 12.5723 132.646 12.1699 132.646C11.8457 132.646 11.5957 132.707 11.4199 132.828C11.248 132.949 11.125 133.113 11.0508 133.32L9.53906 133.221L10.0312 128.469H14.9414V130.414H13.8867L13.7344 129.84H11.4375L11.1973 131.809C11.3027 131.73 11.4238 131.662 11.5605 131.604C11.6973 131.541 11.8438 131.492 12 131.457C12.1602 131.418 12.3301 131.398 12.5098 131.398C13.0566 131.387 13.5215 131.496 13.9043 131.727C14.291 131.953 14.584 132.281 14.7832 132.711C14.9863 133.141 15.0879 133.658 15.0879 134.264C15.0879 134.811 14.9766 135.301 14.7539 135.734C14.5352 136.164 14.2109 136.504 13.7812 136.754C13.3555 137 12.832 137.123 12.2109 137.123ZM18.8613 137.123C17.9707 137.123 17.2656 136.832 16.7461 136.25C16.2266 135.664 15.9668 134.807 15.9668 133.678V131.797C15.9668 130.672 16.2246 129.816 16.7402 129.23C17.2598 128.641 17.9629 128.346 18.8496 128.346C19.7324 128.346 20.4336 128.641 20.9531 129.23C21.4766 129.816 21.7383 130.672 21.7383 131.797V133.678C21.7383 134.807 21.4785 135.664 20.959 136.25C20.4434 136.832 19.7441 137.123 18.8613 137.123ZM18.8613 135.811C19.2441 135.811 19.5352 135.654 19.7344 135.342C19.9336 135.029 20.0332 134.529 20.0332 133.842V131.621C20.0332 130.941 19.9316 130.445 19.7285 130.133C19.5254 129.82 19.2324 129.664 18.8496 129.664C18.4629 129.664 18.1699 129.82 17.9707 130.133C17.7715 130.445 17.6719 130.941 17.6719 131.621V133.842C17.6719 134.529 17.7715 135.029 17.9707 135.342C18.1738 135.654 18.4707 135.811 18.8613 135.811ZM26.6543 137.123C26.0176 137.123 25.457 137.004 24.9727 136.766C24.4922 136.527 24.1172 136.189 23.8477 135.752C23.582 135.314 23.4492 134.799 23.4492 134.205C23.4492 134.197 23.4492 134.189 23.4492 134.182C23.4492 134.174 23.4492 134.166 23.4492 134.158H22.5938V133.262H23.4492V132.383H22.5938V131.486H23.4492V131.41C23.4492 130.789 23.582 130.25 23.8477 129.793C24.1172 129.336 24.4902 128.98 24.9668 128.727C25.4473 128.473 26.0059 128.346 26.6426 128.346C26.877 128.346 27.1055 128.361 27.3281 128.393C27.5547 128.424 27.8008 128.469 28.0664 128.527L27.9434 129.869C27.7402 129.807 27.5273 129.758 27.3047 129.723C27.082 129.684 26.8613 129.664 26.6426 129.664C26.1816 129.664 25.8184 129.818 25.5527 130.127C25.291 130.436 25.1602 130.859 25.1602 131.398V131.486H27.668V132.383H25.1602V133.262H27.668V134.158H25.1602V134.205C25.1641 134.549 25.2246 134.84 25.3418 135.078C25.459 135.316 25.6289 135.498 25.8516 135.623C26.0742 135.748 26.3418 135.811 26.6543 135.811C27.1074 135.811 27.5371 135.744 27.9434 135.611L28.0664 136.941C27.6055 137.062 27.1348 137.123 26.6543 137.123Z" fill="black"/>
<path d="M0.380859 57V55.9746L1.82227 55.7988V50.0215H0.363281V49.043L3.52734 48.4688V55.7988L4.96875 55.9746V57H0.380859ZM8.77148 57.123C7.88086 57.123 7.17578 56.832 6.65625 56.25C6.13672 55.6641 5.87695 54.8066 5.87695 53.6777V51.7969C5.87695 50.6719 6.13477 49.8164 6.65039 49.2305C7.16992 48.6406 7.87305 48.3457 8.75977 48.3457C9.64258 48.3457 10.3438 48.6406 10.8633 49.2305C11.3867 49.8164 11.6484 50.6719 11.6484 51.7969V53.6777C11.6484 54.8066 11.3887 55.6641 10.8691 56.25C10.3535 56.832 9.6543 57.123 8.77148 57.123ZM8.77148 55.8105C9.1543 55.8105 9.44531 55.6543 9.64453 55.3418C9.84375 55.0293 9.94336 54.5293 9.94336 53.8418V51.6211C9.94336 50.9414 9.8418 50.4453 9.63867 50.1328C9.43555 49.8203 9.14258 49.6641 8.75977 49.6641C8.37305 49.6641 8.08008 49.8203 7.88086 50.1328C7.68164 50.4453 7.58203 50.9414 7.58203 51.6211V53.8418C7.58203 54.5293 7.68164 55.0293 7.88086 55.3418C8.08398 55.6543 8.38086 55.8105 8.77148 55.8105ZM15.627 57.123C14.7363 57.123 14.0312 56.832 13.5117 56.25C12.9922 55.6641 12.7324 54.8066 12.7324 53.6777V51.7969C12.7324 50.6719 12.9902 49.8164 13.5059 49.2305C14.0254 48.6406 14.7285 48.3457 15.6152 48.3457C16.498 48.3457 17.1992 48.6406 17.7188 49.2305C18.2422 49.8164 18.5039 50.6719 18.5039 51.7969V53.6777C18.5039 54.8066 18.2441 55.6641 17.7246 56.25C17.209 56.832 16.5098 57.123 15.627 57.123ZM15.627 55.8105C16.0098 55.8105 16.3008 55.6543 16.5 55.3418C16.6992 55.0293 16.7988 54.5293 16.7988 53.8418V51.6211C16.7988 50.9414 16.6973 50.4453 16.4941 50.1328C16.291 49.8203 15.998 49.6641 15.6152 49.6641C15.2285 49.6641 14.9355 49.8203 14.7363 50.1328C14.5371 50.4453 14.4375 50.9414 14.4375 51.6211V53.8418C14.4375 54.5293 14.5371 55.0293 14.7363 55.3418C14.9395 55.6543 15.2363 55.8105 15.627 55.8105ZM23.4199 57.123C22.7832 57.123 22.2227 57.0039 21.7383 56.7656C21.2578 56.5273 20.8828 56.1895 20.6133 55.752C20.3477 55.3145 20.2148 54.7988 20.2148 54.2051C20.2148 54.1973 20.2148 54.1895 20.2148 54.1816C20.2148 54.1738 20.2148 54.166 20.2148 54.1582H19.3594V53.2617H20.2148V52.3828H19.3594V51.4863H20.2148V51.4102C20.2148 50.7891 20.3477 50.25 20.6133 49.793C20.8828 49.3359 21.2559 48.9805 21.7324 48.7266C22.2129 48.4727 22.7715 48.3457 23.4082 48.3457C23.6426 48.3457 23.8711 48.3613 24.0938 48.3926C24.3203 48.4238 24.5664 48.4688 24.832 48.5273L24.709 49.8691C24.5059 49.8066 24.293 49.7578 24.0703 49.7227C23.8477 49.6836 23.627 49.6641 23.4082 49.6641C22.9473 49.6641 22.584 49.8184 22.3184 50.127C22.0566 50.4355 21.9258 50.8594 21.9258 51.3984V51.4863H24.4336V52.3828H21.9258V53.2617H24.4336V54.1582H21.9258V54.2051C21.9297 54.5488 21.9902 54.8398 22.1074 55.0781C22.2246 55.3164 22.3945 55.498 22.6172 55.623C22.8398 55.748 23.1074 55.8105 23.4199 55.8105C23.873 55.8105 24.3027 55.7441 24.709 55.6113L24.832 56.9414C24.3711 57.0625 23.9004 57.123 23.4199 57.123Z" fill="black"/>
</svg>
