<svg width="364" height="210" viewBox="0 0 364 210" fill="none" xmlns="http://www.w3.org/2000/svg">
<line x1="33" y1="123.5" x2="316.028" y2="123.5" stroke="black" stroke-opacity="0.3" stroke-dasharray="4 4"/>
<line x1="33.2689" y1="123.037" x2="316.269" y2="202.037" stroke="#00CC1B" stroke-width="2"/>
<path d="M33.7071 0.292893C33.3166 -0.0976311 32.6834 -0.0976311 32.2929 0.292893L25.9289 6.65685C25.5384 7.04738 25.5384 7.68054 25.9289 8.07107C26.3195 8.46159 26.9526 8.46159 27.3431 8.07107L33 2.41421L38.6569 8.07107C39.0474 8.46159 39.6805 8.46159 40.0711 8.07107C40.4616 7.68054 40.4616 7.04738 40.0711 6.65685L33.7071 0.292893ZM33 202H34L34 1H33H32L32 202H33Z" fill="black"/>
<path d="M333.707 202.707C334.098 202.317 334.098 201.683 333.707 201.293L327.343 194.929C326.953 194.538 326.319 194.538 325.929 194.929C325.538 195.319 325.538 195.953 325.929 196.343L331.586 202L325.929 207.657C325.538 208.047 325.538 208.681 325.929 209.071C326.319 209.462 326.953 209.462 327.343 209.071L333.707 202.707ZM33 202V203H333V202V201H33V202Z" fill="black"/>
<path d="M320.297 193.697C320.682 194.093 321.315 194.102 321.711 193.717L328.166 187.445C328.562 187.06 328.571 186.427 328.186 186.031C327.801 185.635 327.168 185.626 326.772 186.011L321.035 191.586L315.459 185.849C315.074 185.453 314.441 185.444 314.045 185.829C313.649 186.214 313.64 186.847 314.025 187.243L320.297 193.697ZM321.987 124.975L320.988 124.961L320.014 192.986L321.014 193L322.014 193.015L322.987 124.989L321.987 124.975Z" fill="black"/>
<path d="M322.719 123.305C322.335 122.908 321.702 122.897 321.305 123.281L314.836 129.538C314.439 129.922 314.428 130.555 314.812 130.952C315.196 131.349 315.829 131.36 316.226 130.976L321.976 125.414L327.538 131.164C327.922 131.561 328.555 131.572 328.952 131.188C329.349 130.804 329.36 130.171 328.976 129.774L322.719 123.305ZM321 184L322 184.017L323 124.017L322 124L321 123.983L320 183.983L321 184Z" fill="black"/>
<path d="M329.068 146.752H333.316L332.968 148.3H328.732L329.068 146.752ZM338.236 149.644C338.204 149.78 338.232 149.888 338.32 149.968C338.408 150.04 338.544 150.088 338.728 150.112C338.92 150.136 339.144 150.148 339.4 150.148H339.724L339.532 151H334.12L334.312 150.148H334.828C335.076 150.148 335.296 150.136 335.488 150.112C335.68 150.088 335.836 150.04 335.956 149.968C336.084 149.888 336.164 149.78 336.196 149.644L337.444 144.136L337.684 144.016C337.516 144.384 337.304 144.676 337.048 144.892C336.8 145.1 336.512 145.248 336.184 145.336C335.864 145.424 335.508 145.468 335.116 145.468L335.404 144.184C335.74 144.184 336.04 144.164 336.304 144.124C336.568 144.076 336.804 144.012 337.012 143.932C337.22 143.844 337.408 143.74 337.576 143.62C337.744 143.492 337.9 143.344 338.044 143.176H339.712L338.236 149.644ZM343.487 151.132C343.175 151.132 342.887 151.092 342.623 151.012C342.367 150.932 342.135 150.812 341.927 150.652C341.719 150.484 341.543 150.288 341.399 150.064C341.263 149.832 341.155 149.568 341.075 149.272C341.003 148.976 340.967 148.652 340.967 148.3C340.967 147.86 341.011 147.4 341.099 146.92C341.195 146.432 341.335 145.96 341.519 145.504C341.711 145.04 341.955 144.62 342.251 144.244C342.547 143.868 342.899 143.568 343.307 143.344C343.715 143.12 344.187 143.008 344.723 143.008C345.035 143.008 345.319 143.052 345.575 143.14C345.839 143.22 346.071 143.34 346.271 143.5C346.479 143.66 346.651 143.856 346.787 144.088C346.931 144.312 347.039 144.572 347.111 144.868C347.191 145.164 347.231 145.492 347.231 145.852C347.231 146.284 347.183 146.744 347.087 147.232C346.999 147.712 346.859 148.184 346.667 148.648C346.483 149.112 346.243 149.532 345.947 149.908C345.659 150.276 345.311 150.572 344.903 150.796C344.495 151.02 344.023 151.132 343.487 151.132ZM343.499 150.172C343.675 150.172 343.835 150.12 343.979 150.016C344.131 149.912 344.267 149.744 344.387 149.512C344.515 149.28 344.639 148.976 344.759 148.6C344.879 148.216 344.999 147.748 345.119 147.196C345.207 146.836 345.275 146.52 345.323 146.248C345.371 145.968 345.403 145.724 345.419 145.516C345.443 145.308 345.455 145.128 345.455 144.976C345.455 144.752 345.427 144.568 345.371 144.424C345.323 144.272 345.243 144.16 345.131 144.088C345.027 144.016 344.883 143.98 344.699 143.98C344.523 143.98 344.363 144.032 344.219 144.136C344.075 144.24 343.939 144.408 343.811 144.64C343.683 144.872 343.559 145.176 343.439 145.552C343.327 145.928 343.211 146.392 343.091 146.944C343.003 147.304 342.935 147.624 342.887 147.904C342.839 148.176 342.803 148.416 342.779 148.624C342.755 148.832 342.743 149.012 342.743 149.164C342.743 149.388 342.767 149.576 342.815 149.728C342.871 149.872 342.955 149.984 343.067 150.064C343.179 150.136 343.323 150.172 343.499 150.172ZM350.201 151.132C349.889 151.132 349.601 151.092 349.337 151.012C349.081 150.932 348.849 150.812 348.641 150.652C348.433 150.484 348.257 150.288 348.113 150.064C347.977 149.832 347.869 149.568 347.789 149.272C347.717 148.976 347.681 148.652 347.681 148.3C347.681 147.86 347.725 147.4 347.813 146.92C347.909 146.432 348.049 145.96 348.233 145.504C348.425 145.04 348.669 144.62 348.965 144.244C349.261 143.868 349.613 143.568 350.021 143.344C350.429 143.12 350.901 143.008 351.437 143.008C351.749 143.008 352.033 143.052 352.289 143.14C352.553 143.22 352.785 143.34 352.985 143.5C353.193 143.66 353.365 143.856 353.501 144.088C353.645 144.312 353.753 144.572 353.825 144.868C353.905 145.164 353.945 145.492 353.945 145.852C353.945 146.284 353.897 146.744 353.801 147.232C353.713 147.712 353.573 148.184 353.381 148.648C353.197 149.112 352.957 149.532 352.661 149.908C352.373 150.276 352.025 150.572 351.617 150.796C351.209 151.02 350.737 151.132 350.201 151.132ZM350.213 150.172C350.389 150.172 350.549 150.12 350.693 150.016C350.845 149.912 350.981 149.744 351.101 149.512C351.229 149.28 351.353 148.976 351.473 148.6C351.593 148.216 351.713 147.748 351.833 147.196C351.921 146.836 351.989 146.52 352.037 146.248C352.085 145.968 352.117 145.724 352.133 145.516C352.157 145.308 352.169 145.128 352.169 144.976C352.169 144.752 352.141 144.568 352.085 144.424C352.037 144.272 351.957 144.16 351.845 144.088C351.741 144.016 351.597 143.98 351.413 143.98C351.237 143.98 351.077 144.032 350.933 144.136C350.789 144.24 350.653 144.408 350.525 144.64C350.397 144.872 350.273 145.176 350.153 145.552C350.041 145.928 349.925 146.392 349.805 146.944C349.717 147.304 349.649 147.624 349.601 147.904C349.553 148.176 349.517 148.416 349.493 148.624C349.469 148.832 349.457 149.012 349.457 149.164C349.457 149.388 349.481 149.576 349.529 149.728C349.585 149.872 349.669 149.984 349.781 150.064C349.893 150.136 350.037 150.172 350.213 150.172ZM357.588 143.536C357.588 143.392 357.572 143.272 357.54 143.176C357.508 143.08 357.46 143.008 357.396 142.96C357.332 142.912 357.244 142.888 357.132 142.888C356.996 142.888 356.872 142.948 356.76 143.068C356.656 143.18 356.564 143.328 356.484 143.512C356.404 143.696 356.336 143.892 356.28 144.1C356.232 144.308 356.192 144.512 356.16 144.712C356.136 144.912 356.124 145.084 356.124 145.228C356.124 145.372 356.14 145.492 356.172 145.588C356.204 145.684 356.252 145.756 356.316 145.804C356.38 145.852 356.464 145.876 356.568 145.876C356.704 145.876 356.828 145.82 356.94 145.708C357.052 145.588 357.144 145.436 357.216 145.252C357.296 145.068 357.364 144.872 357.42 144.664C357.476 144.456 357.516 144.252 357.54 144.052C357.572 143.852 357.588 143.68 357.588 143.536ZM354.804 144.928C354.804 144.608 354.852 144.284 354.948 143.956C355.044 143.62 355.188 143.316 355.38 143.044C355.572 142.764 355.816 142.54 356.112 142.372C356.408 142.196 356.752 142.108 357.144 142.108C357.52 142.108 357.836 142.18 358.092 142.324C358.356 142.46 358.556 142.66 358.692 142.924C358.836 143.18 358.908 143.484 358.908 143.836C358.908 144.156 358.86 144.48 358.764 144.808C358.668 145.136 358.52 145.44 358.32 145.72C358.128 146 357.884 146.228 357.588 146.404C357.3 146.572 356.956 146.656 356.556 146.656C356.188 146.656 355.872 146.588 355.608 146.452C355.344 146.308 355.144 146.108 355.008 145.852C354.872 145.588 354.804 145.28 354.804 144.928ZM361.764 148.096C361.764 147.944 361.748 147.824 361.716 147.736C361.684 147.64 361.636 147.568 361.572 147.52C361.508 147.472 361.424 147.448 361.32 147.448C361.184 147.448 361.06 147.508 360.948 147.628C360.844 147.74 360.752 147.888 360.672 148.072C360.592 148.256 360.524 148.452 360.468 148.66C360.412 148.868 360.372 149.072 360.348 149.272C360.324 149.472 360.312 149.644 360.312 149.788C360.312 149.932 360.324 150.052 360.348 150.148C360.38 150.244 360.428 150.316 360.492 150.364C360.556 150.412 360.644 150.436 360.756 150.436C360.892 150.436 361.012 150.38 361.116 150.268C361.228 150.148 361.324 149.996 361.404 149.812C361.484 149.628 361.552 149.432 361.608 149.224C361.664 149.016 361.704 148.812 361.728 148.612C361.752 148.412 361.764 148.24 361.764 148.096ZM358.992 149.476C358.992 149.164 359.036 148.844 359.124 148.516C359.22 148.18 359.364 147.872 359.556 147.592C359.756 147.312 360 147.088 360.288 146.92C360.584 146.752 360.932 146.668 361.332 146.668C361.708 146.668 362.024 146.74 362.28 146.884C362.544 147.02 362.744 147.22 362.88 147.484C363.016 147.74 363.084 148.044 363.084 148.396C363.084 148.716 363.036 149.04 362.94 149.368C362.844 149.696 362.7 150 362.508 150.28C362.316 150.56 362.072 150.788 361.776 150.964C361.48 151.132 361.132 151.216 360.732 151.216C360.364 151.216 360.048 151.144 359.784 151C359.528 150.856 359.332 150.656 359.196 150.4C359.06 150.144 358.992 149.836 358.992 149.476ZM362.34 142.48H363.504L355.38 151H354.216L362.34 142.48Z" fill="black"/>
<path d="M333.768 178.012V176.693H337.072V178.012H333.768ZM340.992 181.123C340.473 181.123 339.996 181.027 339.562 180.836C339.133 180.641 338.791 180.363 338.537 180.004C338.283 179.645 338.162 179.215 338.174 178.715L338.186 178.686L339.826 178.604C339.826 178.982 339.934 179.279 340.148 179.494C340.363 179.705 340.645 179.811 340.992 179.811C341.391 179.811 341.686 179.668 341.877 179.383C342.068 179.098 342.164 178.729 342.164 178.275C342.164 177.783 342.062 177.389 341.859 177.092C341.656 176.795 341.354 176.646 340.951 176.646C340.627 176.646 340.377 176.707 340.201 176.828C340.029 176.949 339.906 177.113 339.832 177.32L338.32 177.221L338.812 172.469H343.723V174.414H342.668L342.516 173.84H340.219L339.979 175.809C340.084 175.73 340.205 175.662 340.342 175.604C340.479 175.541 340.625 175.492 340.781 175.457C340.941 175.418 341.111 175.398 341.291 175.398C341.838 175.387 342.303 175.496 342.686 175.727C343.072 175.953 343.365 176.281 343.564 176.711C343.768 177.141 343.869 177.658 343.869 178.264C343.869 178.811 343.758 179.301 343.535 179.734C343.316 180.164 342.992 180.504 342.562 180.754C342.137 181 341.613 181.123 340.992 181.123ZM347.643 181.123C346.752 181.123 346.047 180.832 345.527 180.25C345.008 179.664 344.748 178.807 344.748 177.678V175.797C344.748 174.672 345.006 173.816 345.521 173.23C346.041 172.641 346.744 172.346 347.631 172.346C348.514 172.346 349.215 172.641 349.734 173.23C350.258 173.816 350.52 174.672 350.52 175.797V177.678C350.52 178.807 350.26 179.664 349.74 180.25C349.225 180.832 348.525 181.123 347.643 181.123ZM347.643 179.811C348.025 179.811 348.316 179.654 348.516 179.342C348.715 179.029 348.814 178.529 348.814 177.842V175.621C348.814 174.941 348.713 174.445 348.51 174.133C348.307 173.82 348.014 173.664 347.631 173.664C347.244 173.664 346.951 173.82 346.752 174.133C346.553 174.445 346.453 174.941 346.453 175.621V177.842C346.453 178.529 346.553 179.029 346.752 179.342C346.955 179.654 347.252 179.811 347.643 179.811ZM355.436 181.123C354.799 181.123 354.238 181.004 353.754 180.766C353.273 180.527 352.898 180.189 352.629 179.752C352.363 179.314 352.23 178.799 352.23 178.205C352.23 178.197 352.23 178.189 352.23 178.182C352.23 178.174 352.23 178.166 352.23 178.158H351.375V177.262H352.23V176.383H351.375V175.486H352.23V175.41C352.23 174.789 352.363 174.25 352.629 173.793C352.898 173.336 353.271 172.98 353.748 172.727C354.229 172.473 354.787 172.346 355.424 172.346C355.658 172.346 355.887 172.361 356.109 172.393C356.336 172.424 356.582 172.469 356.848 172.527L356.725 173.869C356.521 173.807 356.309 173.758 356.086 173.723C355.863 173.684 355.643 173.664 355.424 173.664C354.963 173.664 354.6 173.818 354.334 174.127C354.072 174.436 353.941 174.859 353.941 175.398V175.486H356.449V176.383H353.941V177.262H356.449V178.158H353.941V178.205C353.945 178.549 354.006 178.84 354.123 179.078C354.24 179.316 354.41 179.498 354.633 179.623C354.855 179.748 355.123 179.811 355.436 179.811C355.889 179.811 356.318 179.744 356.725 179.611L356.848 180.941C356.387 181.062 355.916 181.123 355.436 181.123Z" fill="black"/>
<path d="M3.21094 129.123C2.69141 129.123 2.21484 129.027 1.78125 128.836C1.35156 128.641 1.00977 128.363 0.755859 128.004C0.501953 127.645 0.380859 127.215 0.392578 126.715L0.404297 126.686L2.04492 126.604C2.04492 126.982 2.15234 127.279 2.36719 127.494C2.58203 127.705 2.86328 127.811 3.21094 127.811C3.60938 127.811 3.9043 127.668 4.0957 127.383C4.28711 127.098 4.38281 126.729 4.38281 126.275C4.38281 125.783 4.28125 125.389 4.07812 125.092C3.875 124.795 3.57227 124.646 3.16992 124.646C2.8457 124.646 2.5957 124.707 2.41992 124.828C2.24805 124.949 2.125 125.113 2.05078 125.32L0.539062 125.221L1.03125 120.469H5.94141V122.414H4.88672L4.73438 121.84H2.4375L2.19727 123.809C2.30273 123.73 2.42383 123.662 2.56055 123.604C2.69727 123.541 2.84375 123.492 3 123.457C3.16016 123.418 3.33008 123.398 3.50977 123.398C4.05664 123.387 4.52148 123.496 4.9043 123.727C5.29102 123.953 5.58398 124.281 5.7832 124.711C5.98633 125.141 6.08789 125.658 6.08789 126.264C6.08789 126.811 5.97656 127.301 5.75391 127.734C5.53516 128.164 5.21094 128.504 4.78125 128.754C4.35547 129 3.83203 129.123 3.21094 129.123ZM9.86133 129.123C8.9707 129.123 8.26562 128.832 7.74609 128.25C7.22656 127.664 6.9668 126.807 6.9668 125.678V123.797C6.9668 122.672 7.22461 121.816 7.74023 121.23C8.25977 120.641 8.96289 120.346 9.84961 120.346C10.7324 120.346 11.4336 120.641 11.9531 121.23C12.4766 121.816 12.7383 122.672 12.7383 123.797V125.678C12.7383 126.807 12.4785 127.664 11.959 128.25C11.4434 128.832 10.7441 129.123 9.86133 129.123ZM9.86133 127.811C10.2441 127.811 10.5352 127.654 10.7344 127.342C10.9336 127.029 11.0332 126.529 11.0332 125.842V123.621C11.0332 122.941 10.9316 122.445 10.7285 122.133C10.5254 121.82 10.2324 121.664 9.84961 121.664C9.46289 121.664 9.16992 121.82 8.9707 122.133C8.77148 122.445 8.67188 122.941 8.67188 123.621V125.842C8.67188 126.529 8.77148 127.029 8.9707 127.342C9.17383 127.654 9.4707 127.811 9.86133 127.811ZM17.6543 129.123C17.0176 129.123 16.457 129.004 15.9727 128.766C15.4922 128.527 15.1172 128.189 14.8477 127.752C14.582 127.314 14.4492 126.799 14.4492 126.205C14.4492 126.197 14.4492 126.189 14.4492 126.182C14.4492 126.174 14.4492 126.166 14.4492 126.158H13.5938V125.262H14.4492V124.383H13.5938V123.486H14.4492V123.41C14.4492 122.789 14.582 122.25 14.8477 121.793C15.1172 121.336 15.4902 120.98 15.9668 120.727C16.4473 120.473 17.0059 120.346 17.6426 120.346C17.877 120.346 18.1055 120.361 18.3281 120.393C18.5547 120.424 18.8008 120.469 19.0664 120.527L18.9434 121.869C18.7402 121.807 18.5273 121.758 18.3047 121.723C18.082 121.684 17.8613 121.664 17.6426 121.664C17.1816 121.664 16.8184 121.818 16.5527 122.127C16.291 122.436 16.1602 122.859 16.1602 123.398V123.486H18.668V124.383H16.1602V125.262H18.668V126.158H16.1602V126.205C16.1641 126.549 16.2246 126.84 16.3418 127.078C16.459 127.316 16.6289 127.498 16.8516 127.623C17.0742 127.748 17.3418 127.811 17.6543 127.811C18.1074 127.811 18.5371 127.744 18.9434 127.611L19.0664 128.941C18.6055 129.062 18.1348 129.123 17.6543 129.123Z" fill="black"/>
<path d="M3.46289 207.123C2.57227 207.123 1.86719 206.832 1.34766 206.25C0.828125 205.664 0.568359 204.807 0.568359 203.678V201.797C0.568359 200.672 0.826172 199.816 1.3418 199.23C1.86133 198.641 2.56445 198.346 3.45117 198.346C4.33398 198.346 5.03516 198.641 5.55469 199.23C6.07812 199.816 6.33984 200.672 6.33984 201.797V203.678C6.33984 204.807 6.08008 205.664 5.56055 206.25C5.04492 206.832 4.3457 207.123 3.46289 207.123ZM3.46289 205.811C3.8457 205.811 4.13672 205.654 4.33594 205.342C4.53516 205.029 4.63477 204.529 4.63477 203.842V201.621C4.63477 200.941 4.5332 200.445 4.33008 200.133C4.12695 199.82 3.83398 199.664 3.45117 199.664C3.06445 199.664 2.77148 199.82 2.57227 200.133C2.37305 200.445 2.27344 200.941 2.27344 201.621V203.842C2.27344 204.529 2.37305 205.029 2.57227 205.342C2.77539 205.654 3.07227 205.811 3.46289 205.811ZM11.2559 207.123C10.6191 207.123 10.0586 207.004 9.57422 206.766C9.09375 206.527 8.71875 206.189 8.44922 205.752C8.18359 205.314 8.05078 204.799 8.05078 204.205C8.05078 204.197 8.05078 204.189 8.05078 204.182C8.05078 204.174 8.05078 204.166 8.05078 204.158H7.19531V203.262H8.05078V202.383H7.19531V201.486H8.05078V201.41C8.05078 200.789 8.18359 200.25 8.44922 199.793C8.71875 199.336 9.0918 198.98 9.56836 198.727C10.0488 198.473 10.6074 198.346 11.2441 198.346C11.4785 198.346 11.707 198.361 11.9297 198.393C12.1562 198.424 12.4023 198.469 12.668 198.527L12.5449 199.869C12.3418 199.807 12.1289 199.758 11.9062 199.723C11.6836 199.684 11.4629 199.664 11.2441 199.664C10.7832 199.664 10.4199 199.818 10.1543 200.127C9.89258 200.436 9.76172 200.859 9.76172 201.398V201.486H12.2695V202.383H9.76172V203.262H12.2695V204.158H9.76172V204.205C9.76562 204.549 9.82617 204.84 9.94336 205.078C10.0605 205.316 10.2305 205.498 10.4531 205.623C10.6758 205.748 10.9434 205.811 11.2559 205.811C11.709 205.811 12.1387 205.744 12.5449 205.611L12.668 206.941C12.207 207.062 11.7363 207.123 11.2559 207.123Z" fill="black"/>
</svg>
