<svg width="353" height="210" viewBox="0 0 353 210" fill="none" xmlns="http://www.w3.org/2000/svg">
<line x1="32" y1="131.5" x2="315.028" y2="131.5" stroke="black" stroke-opacity="0.3" stroke-dasharray="4 4"/>
<line x1="32" y1="52.5" x2="315.028" y2="52.5" stroke="black" stroke-opacity="0.3" stroke-dasharray="4 4"/>
<line x1="31.7311" y1="131.037" x2="314.731" y2="52.0368" stroke="#00CC1B" stroke-width="2"/>
<path d="M32.7071 0.292893C32.3166 -0.0976311 31.6834 -0.0976311 31.2929 0.292893L24.9289 6.65685C24.5384 7.04738 24.5384 7.68054 24.9289 8.07107C25.3195 8.46159 25.9526 8.46159 26.3431 8.07107L32 2.41421L37.6569 8.07107C38.0474 8.46159 38.6805 8.46159 39.0711 8.07107C39.4616 7.68054 39.4616 7.04738 39.0711 6.65685L32.7071 0.292893ZM32 202H33L33 1H32H31L31 202H32Z" fill="black"/>
<path d="M332.707 202.707C333.098 202.317 333.098 201.683 332.707 201.293L326.343 194.929C325.953 194.538 325.319 194.538 324.929 194.929C324.538 195.319 324.538 195.953 324.929 196.343L330.586 202L324.929 207.657C324.538 208.047 324.538 208.681 324.929 209.071C325.319 209.462 325.953 209.462 326.343 209.071L332.707 202.707ZM32 202V203H332V202V201H32V202Z" fill="black"/>
<path d="M321.293 132.707C321.683 133.098 322.317 133.098 322.707 132.707L329.071 126.343C329.462 125.953 329.462 125.319 329.071 124.929C328.681 124.538 328.047 124.538 327.657 124.929L322 130.586L316.343 124.929C315.953 124.538 315.319 124.538 314.929 124.929C314.538 125.319 314.538 125.953 314.929 126.343L321.293 132.707ZM322 53H321V132H322H323V53H322Z" fill="black"/>
<path d="M322.707 51.2929C322.317 50.9024 321.683 50.9024 321.293 51.2929L314.929 57.6569C314.538 58.0474 314.538 58.6805 314.929 59.0711C315.319 59.4616 315.953 59.4616 316.343 59.0711L322 53.4142L327.657 59.0711C328.047 59.4616 328.681 59.4616 329.071 59.0711C329.462 58.6805 329.462 58.0474 329.071 57.6569L322.707 51.2929ZM322 132H323V52H322H321V132H322Z" fill="black"/>
<path d="M338.64 78.828C338.04 78.828 337.544 78.736 337.152 78.552C336.76 78.368 336.456 78.12 336.24 77.808C336.024 77.488 335.872 77.124 335.784 76.716L336.876 76.332C336.916 76.5 336.972 76.672 337.044 76.848C337.116 77.024 337.208 77.184 337.32 77.328C337.44 77.472 337.592 77.588 337.776 77.676C337.96 77.764 338.192 77.808 338.472 77.808C338.768 77.808 339.02 77.728 339.228 77.568C339.436 77.408 339.6 77.2 339.72 76.944C339.848 76.68 339.94 76.4 339.996 76.104C340.052 75.808 340.08 75.524 340.08 75.252C340.08 75.02 340.044 74.82 339.972 74.652C339.908 74.484 339.804 74.356 339.66 74.268C339.524 74.172 339.344 74.124 339.12 74.124C338.912 74.124 338.724 74.16 338.556 74.232C338.388 74.304 338.236 74.412 338.1 74.556C337.972 74.692 337.852 74.86 337.74 75.06H336.804L337.908 70.176H342.552L341.988 71.664H338.34L338.892 70.416L338.004 74.328L337.692 74.484C337.844 74.212 338.02 73.976 338.22 73.776C338.42 73.568 338.652 73.412 338.916 73.308C339.18 73.196 339.488 73.14 339.84 73.14C340.296 73.14 340.688 73.228 341.016 73.404C341.344 73.58 341.596 73.832 341.772 74.16C341.956 74.488 342.048 74.884 342.048 75.348C342.048 75.836 341.976 76.292 341.832 76.716C341.688 77.132 341.472 77.5 341.184 77.82C340.904 78.132 340.552 78.376 340.128 78.552C339.704 78.736 339.208 78.828 338.64 78.828ZM346.147 70.536C346.147 70.392 346.131 70.272 346.099 70.176C346.067 70.08 346.019 70.008 345.955 69.96C345.891 69.912 345.803 69.888 345.691 69.888C345.555 69.888 345.431 69.948 345.319 70.068C345.215 70.18 345.123 70.328 345.043 70.512C344.963 70.696 344.895 70.892 344.839 71.1C344.791 71.308 344.751 71.512 344.719 71.712C344.695 71.912 344.683 72.084 344.683 72.228C344.683 72.372 344.699 72.492 344.731 72.588C344.763 72.684 344.811 72.756 344.875 72.804C344.939 72.852 345.023 72.876 345.127 72.876C345.263 72.876 345.387 72.82 345.499 72.708C345.611 72.588 345.703 72.436 345.775 72.252C345.855 72.068 345.923 71.872 345.979 71.664C346.035 71.456 346.075 71.252 346.099 71.052C346.131 70.852 346.147 70.68 346.147 70.536ZM343.363 71.928C343.363 71.608 343.411 71.284 343.507 70.956C343.603 70.62 343.747 70.316 343.939 70.044C344.131 69.764 344.375 69.54 344.671 69.372C344.967 69.196 345.311 69.108 345.703 69.108C346.079 69.108 346.395 69.18 346.651 69.324C346.915 69.46 347.115 69.66 347.251 69.924C347.395 70.18 347.467 70.484 347.467 70.836C347.467 71.156 347.419 71.48 347.323 71.808C347.227 72.136 347.079 72.44 346.879 72.72C346.687 73 346.443 73.228 346.147 73.404C345.859 73.572 345.515 73.656 345.115 73.656C344.747 73.656 344.431 73.588 344.167 73.452C343.903 73.308 343.703 73.108 343.567 72.852C343.431 72.588 343.363 72.28 343.363 71.928ZM350.323 75.096C350.323 74.944 350.307 74.824 350.275 74.736C350.243 74.64 350.195 74.568 350.131 74.52C350.067 74.472 349.983 74.448 349.879 74.448C349.743 74.448 349.619 74.508 349.507 74.628C349.403 74.74 349.311 74.888 349.231 75.072C349.151 75.256 349.083 75.452 349.027 75.66C348.971 75.868 348.931 76.072 348.907 76.272C348.883 76.472 348.871 76.644 348.871 76.788C348.871 76.932 348.883 77.052 348.907 77.148C348.939 77.244 348.987 77.316 349.051 77.364C349.115 77.412 349.203 77.436 349.315 77.436C349.451 77.436 349.571 77.38 349.675 77.268C349.787 77.148 349.883 76.996 349.963 76.812C350.043 76.628 350.111 76.432 350.167 76.224C350.223 76.016 350.263 75.812 350.287 75.612C350.311 75.412 350.323 75.24 350.323 75.096ZM347.551 76.476C347.551 76.164 347.595 75.844 347.683 75.516C347.779 75.18 347.923 74.872 348.115 74.592C348.315 74.312 348.559 74.088 348.847 73.92C349.143 73.752 349.491 73.668 349.891 73.668C350.267 73.668 350.583 73.74 350.839 73.884C351.103 74.02 351.303 74.22 351.439 74.484C351.575 74.74 351.643 75.044 351.643 75.396C351.643 75.716 351.595 76.04 351.499 76.368C351.403 76.696 351.259 77 351.067 77.28C350.875 77.56 350.631 77.788 350.335 77.964C350.039 78.132 349.691 78.216 349.291 78.216C348.923 78.216 348.607 78.144 348.343 78C348.087 77.856 347.891 77.656 347.755 77.4C347.619 77.144 347.551 76.836 347.551 76.476ZM350.899 69.48H352.063L343.939 78H342.775L350.899 69.48Z" fill="black"/>
<path d="M339.211 105.123C338.691 105.123 338.215 105.027 337.781 104.836C337.352 104.641 337.01 104.363 336.756 104.004C336.502 103.645 336.381 103.215 336.393 102.715L336.404 102.686L338.045 102.604C338.045 102.982 338.152 103.279 338.367 103.494C338.582 103.705 338.863 103.811 339.211 103.811C339.609 103.811 339.904 103.668 340.096 103.383C340.287 103.098 340.383 102.729 340.383 102.275C340.383 101.783 340.281 101.389 340.078 101.092C339.875 100.795 339.572 100.646 339.17 100.646C338.846 100.646 338.596 100.707 338.42 100.828C338.248 100.949 338.125 101.113 338.051 101.32L336.539 101.221L337.031 96.4688H341.941V98.4141H340.887L340.734 97.8398H338.438L338.197 99.8086C338.303 99.7305 338.424 99.6621 338.561 99.6035C338.697 99.541 338.844 99.4922 339 99.457C339.16 99.418 339.33 99.3984 339.51 99.3984C340.057 99.3867 340.521 99.4961 340.904 99.7266C341.291 99.9531 341.584 100.281 341.783 100.711C341.986 101.141 342.088 101.658 342.088 102.264C342.088 102.811 341.977 103.301 341.754 103.734C341.535 104.164 341.211 104.504 340.781 104.754C340.355 105 339.832 105.123 339.211 105.123ZM346.799 105.123C346.162 105.123 345.602 105.004 345.117 104.766C344.637 104.527 344.262 104.189 343.992 103.752C343.727 103.314 343.594 102.799 343.594 102.205C343.594 102.197 343.594 102.189 343.594 102.182C343.594 102.174 343.594 102.166 343.594 102.158H342.738V101.262H343.594V100.383H342.738V99.4863H343.594V99.4102C343.594 98.7891 343.727 98.25 343.992 97.793C344.262 97.3359 344.635 96.9805 345.111 96.7266C345.592 96.4727 346.15 96.3457 346.787 96.3457C347.021 96.3457 347.25 96.3613 347.473 96.3926C347.699 96.4238 347.945 96.4688 348.211 96.5273L348.088 97.8691C347.885 97.8066 347.672 97.7578 347.449 97.7227C347.227 97.6836 347.006 97.6641 346.787 97.6641C346.326 97.6641 345.963 97.8184 345.697 98.127C345.436 98.4355 345.305 98.8594 345.305 99.3984V99.4863H347.812V100.383H345.305V101.262H347.812V102.158H345.305V102.205C345.309 102.549 345.369 102.84 345.486 103.078C345.604 103.316 345.773 103.498 345.996 103.623C346.219 103.748 346.486 103.811 346.799 103.811C347.252 103.811 347.682 103.744 348.088 103.611L348.211 104.941C347.75 105.062 347.279 105.123 346.799 105.123Z" fill="black"/>
<path d="M0.380859 137V135.975L1.82227 135.799V130.021H0.363281V129.043L3.52734 128.469V135.799L4.96875 135.975V137H0.380859ZM8.77148 137.123C7.88086 137.123 7.17578 136.832 6.65625 136.25C6.13672 135.664 5.87695 134.807 5.87695 133.678V131.797C5.87695 130.672 6.13477 129.816 6.65039 129.23C7.16992 128.641 7.87305 128.346 8.75977 128.346C9.64258 128.346 10.3438 128.641 10.8633 129.23C11.3867 129.816 11.6484 130.672 11.6484 131.797V133.678C11.6484 134.807 11.3887 135.664 10.8691 136.25C10.3535 136.832 9.6543 137.123 8.77148 137.123ZM8.77148 135.811C9.1543 135.811 9.44531 135.654 9.64453 135.342C9.84375 135.029 9.94336 134.529 9.94336 133.842V131.621C9.94336 130.941 9.8418 130.445 9.63867 130.133C9.43555 129.82 9.14258 129.664 8.75977 129.664C8.37305 129.664 8.08008 129.82 7.88086 130.133C7.68164 130.445 7.58203 130.941 7.58203 131.621V133.842C7.58203 134.529 7.68164 135.029 7.88086 135.342C8.08398 135.654 8.38086 135.811 8.77148 135.811ZM15.627 137.123C14.7363 137.123 14.0312 136.832 13.5117 136.25C12.9922 135.664 12.7324 134.807 12.7324 133.678V131.797C12.7324 130.672 12.9902 129.816 13.5059 129.23C14.0254 128.641 14.7285 128.346 15.6152 128.346C16.498 128.346 17.1992 128.641 17.7188 129.23C18.2422 129.816 18.5039 130.672 18.5039 131.797V133.678C18.5039 134.807 18.2441 135.664 17.7246 136.25C17.209 136.832 16.5098 137.123 15.627 137.123ZM15.627 135.811C16.0098 135.811 16.3008 135.654 16.5 135.342C16.6992 135.029 16.7988 134.529 16.7988 133.842V131.621C16.7988 130.941 16.6973 130.445 16.4941 130.133C16.291 129.82 15.998 129.664 15.6152 129.664C15.2285 129.664 14.9355 129.82 14.7363 130.133C14.5371 130.445 14.4375 130.941 14.4375 131.621V133.842C14.4375 134.529 14.5371 135.029 14.7363 135.342C14.9395 135.654 15.2363 135.811 15.627 135.811ZM23.4199 137.123C22.7832 137.123 22.2227 137.004 21.7383 136.766C21.2578 136.527 20.8828 136.189 20.6133 135.752C20.3477 135.314 20.2148 134.799 20.2148 134.205C20.2148 134.197 20.2148 134.189 20.2148 134.182C20.2148 134.174 20.2148 134.166 20.2148 134.158H19.3594V133.262H20.2148V132.383H19.3594V131.486H20.2148V131.41C20.2148 130.789 20.3477 130.25 20.6133 129.793C20.8828 129.336 21.2559 128.98 21.7324 128.727C22.2129 128.473 22.7715 128.346 23.4082 128.346C23.6426 128.346 23.8711 128.361 24.0938 128.393C24.3203 128.424 24.5664 128.469 24.832 128.527L24.709 129.869C24.5059 129.807 24.293 129.758 24.0703 129.723C23.8477 129.684 23.627 129.664 23.4082 129.664C22.9473 129.664 22.584 129.818 22.3184 130.127C22.0566 130.436 21.9258 130.859 21.9258 131.398V131.486H24.4336V132.383H21.9258V133.262H24.4336V134.158H21.9258V134.205C21.9297 134.549 21.9902 134.84 22.1074 135.078C22.2246 135.316 22.3945 135.498 22.6172 135.623C22.8398 135.748 23.1074 135.811 23.4199 135.811C23.873 135.811 24.3027 135.744 24.709 135.611L24.832 136.941C24.3711 137.062 23.9004 137.123 23.4199 137.123Z" fill="black"/>
<path d="M0.380859 57V55.9746L1.82227 55.7988V50.0215H0.363281V49.043L3.52734 48.4688V55.7988L4.96875 55.9746V57H0.380859ZM8.77148 57.123C7.88086 57.123 7.17578 56.832 6.65625 56.25C6.13672 55.6641 5.87695 54.8066 5.87695 53.6777V51.7969C5.87695 50.6719 6.13477 49.8164 6.65039 49.2305C7.16992 48.6406 7.87305 48.3457 8.75977 48.3457C9.64258 48.3457 10.3438 48.6406 10.8633 49.2305C11.3867 49.8164 11.6484 50.6719 11.6484 51.7969V53.6777C11.6484 54.8066 11.3887 55.6641 10.8691 56.25C10.3535 56.832 9.6543 57.123 8.77148 57.123ZM8.77148 55.8105C9.1543 55.8105 9.44531 55.6543 9.64453 55.3418C9.84375 55.0293 9.94336 54.5293 9.94336 53.8418V51.6211C9.94336 50.9414 9.8418 50.4453 9.63867 50.1328C9.43555 49.8203 9.14258 49.6641 8.75977 49.6641C8.37305 49.6641 8.08008 49.8203 7.88086 50.1328C7.68164 50.4453 7.58203 50.9414 7.58203 51.6211V53.8418C7.58203 54.5293 7.68164 55.0293 7.88086 55.3418C8.08398 55.6543 8.38086 55.8105 8.77148 55.8105ZM15.375 57.123C14.8555 57.123 14.3789 57.0273 13.9453 56.8359C13.5156 56.6406 13.1738 56.3633 12.9199 56.0039C12.666 55.6445 12.5449 55.2148 12.5566 54.7148L12.5684 54.6855L14.209 54.6035C14.209 54.9824 14.3164 55.2793 14.5312 55.4941C14.7461 55.7051 15.0273 55.8105 15.375 55.8105C15.7734 55.8105 16.0684 55.668 16.2598 55.3828C16.4512 55.0977 16.5469 54.7285 16.5469 54.2754C16.5469 53.7832 16.4453 53.3887 16.2422 53.0918C16.0391 52.7949 15.7363 52.6465 15.334 52.6465C15.0098 52.6465 14.7598 52.707 14.584 52.8281C14.4121 52.9492 14.2891 53.1133 14.2148 53.3203L12.7031 53.2207L13.1953 48.4688H18.1055V50.4141H17.0508L16.8984 49.8398H14.6016L14.3613 51.8086C14.4668 51.7305 14.5879 51.6621 14.7246 51.6035C14.8613 51.541 15.0078 51.4922 15.1641 51.457C15.3242 51.418 15.4941 51.3984 15.6738 51.3984C16.2207 51.3867 16.6855 51.4961 17.0684 51.7266C17.4551 51.9531 17.748 52.2812 17.9473 52.7109C18.1504 53.1406 18.252 53.6582 18.252 54.2637C18.252 54.8105 18.1406 55.3008 17.918 55.7344C17.6992 56.1641 17.375 56.5039 16.9453 56.7539C16.5195 57 15.9961 57.123 15.375 57.123ZM22.9629 57.123C22.3262 57.123 21.7656 57.0039 21.2812 56.7656C20.8008 56.5273 20.4258 56.1895 20.1562 55.752C19.8906 55.3145 19.7578 54.7988 19.7578 54.2051C19.7578 54.1973 19.7578 54.1895 19.7578 54.1816C19.7578 54.1738 19.7578 54.166 19.7578 54.1582H18.9023V53.2617H19.7578V52.3828H18.9023V51.4863H19.7578V51.4102C19.7578 50.7891 19.8906 50.25 20.1562 49.793C20.4258 49.3359 20.7988 48.9805 21.2754 48.7266C21.7559 48.4727 22.3145 48.3457 22.9512 48.3457C23.1855 48.3457 23.4141 48.3613 23.6367 48.3926C23.8633 48.4238 24.1094 48.4688 24.375 48.5273L24.252 49.8691C24.0488 49.8066 23.8359 49.7578 23.6133 49.7227C23.3906 49.6836 23.1699 49.6641 22.9512 49.6641C22.4902 49.6641 22.127 49.8184 21.8613 50.127C21.5996 50.4355 21.4688 50.8594 21.4688 51.3984V51.4863H23.9766V52.3828H21.4688V53.2617H23.9766V54.1582H21.4688V54.2051C21.4727 54.5488 21.5332 54.8398 21.6504 55.0781C21.7676 55.3164 21.9375 55.498 22.1602 55.623C22.3828 55.748 22.6504 55.8105 22.9629 55.8105C23.416 55.8105 23.8457 55.7441 24.252 55.6113L24.375 56.9414C23.9141 57.0625 23.4434 57.123 22.9629 57.123Z" fill="black"/>
</svg>
