<svg width="367" height="210" viewBox="0 0 367 210" fill="none" xmlns="http://www.w3.org/2000/svg">
<line x1="40" y1="131.5" x2="323.028" y2="131.5" stroke="black" stroke-opacity="0.3" stroke-dasharray="4 4"/>
<line x1="40" y1="52.5" x2="323.028" y2="52.5" stroke="black" stroke-opacity="0.3" stroke-dasharray="4 4"/>
<line x1="39.7311" y1="131.037" x2="322.731" y2="52.0368" stroke="#00CC1B" stroke-width="2"/>
<path d="M40.7071 0.292893C40.3166 -0.0976311 39.6834 -0.0976311 39.2929 0.292893L32.9289 6.65685C32.5384 7.04738 32.5384 7.68054 32.9289 8.07107C33.3195 8.46159 33.9526 8.46159 34.3431 8.07107L40 2.41421L45.6569 8.07107C46.0474 8.46159 46.6805 8.46159 47.0711 8.07107C47.4616 7.68054 47.4616 7.04738 47.0711 6.65685L40.7071 0.292893ZM40 202H41L41 1H40H39L39 202H40Z" fill="black"/>
<path d="M340.707 202.707C341.098 202.317 341.098 201.683 340.707 201.293L334.343 194.929C333.953 194.538 333.319 194.538 332.929 194.929C332.538 195.319 332.538 195.953 332.929 196.343L338.586 202L332.929 207.657C332.538 208.047 332.538 208.681 332.929 209.071C333.319 209.462 333.953 209.462 334.343 209.071L340.707 202.707ZM40 202V203H340V202V201H40V202Z" fill="black"/>
<path d="M329.293 132.707C329.683 133.098 330.317 133.098 330.707 132.707L337.071 126.343C337.462 125.953 337.462 125.319 337.071 124.929C336.681 124.538 336.047 124.538 335.657 124.929L330 130.586L324.343 124.929C323.953 124.538 323.319 124.538 322.929 124.929C322.538 125.319 322.538 125.953 322.929 126.343L329.293 132.707ZM330 53H329V132H330H331V53H330Z" fill="black"/>
<path d="M330.707 51.2929C330.317 50.9024 329.683 50.9024 329.293 51.2929L322.929 57.6569C322.538 58.0474 322.538 58.6805 322.929 59.0711C323.319 59.4616 323.953 59.4616 324.343 59.0711L330 53.4142L335.657 59.0711C336.047 59.4616 336.681 59.4616 337.071 59.0711C337.462 58.6805 337.462 58.0474 337.071 57.6569L330.707 51.2929ZM330 132H331V52H330H329V132H330Z" fill="black"/>
<path d="M350.64 82.828C350.04 82.828 349.544 82.736 349.152 82.552C348.76 82.368 348.456 82.12 348.24 81.808C348.024 81.488 347.872 81.124 347.784 80.716L348.876 80.332C348.916 80.5 348.972 80.672 349.044 80.848C349.116 81.024 349.208 81.184 349.32 81.328C349.44 81.472 349.592 81.588 349.776 81.676C349.96 81.764 350.192 81.808 350.472 81.808C350.768 81.808 351.02 81.728 351.228 81.568C351.436 81.408 351.6 81.2 351.72 80.944C351.848 80.68 351.94 80.4 351.996 80.104C352.052 79.808 352.08 79.524 352.08 79.252C352.08 79.02 352.044 78.82 351.972 78.652C351.908 78.484 351.804 78.356 351.66 78.268C351.524 78.172 351.344 78.124 351.12 78.124C350.912 78.124 350.724 78.16 350.556 78.232C350.388 78.304 350.236 78.412 350.1 78.556C349.972 78.692 349.852 78.86 349.74 79.06H348.804L349.908 74.176H354.552L353.988 75.664H350.34L350.892 74.416L350.004 78.328L349.692 78.484C349.844 78.212 350.02 77.976 350.22 77.776C350.42 77.568 350.652 77.412 350.916 77.308C351.18 77.196 351.488 77.14 351.84 77.14C352.296 77.14 352.688 77.228 353.016 77.404C353.344 77.58 353.596 77.832 353.772 78.16C353.956 78.488 354.048 78.884 354.048 79.348C354.048 79.836 353.976 80.292 353.832 80.716C353.688 81.132 353.472 81.5 353.184 81.82C352.904 82.132 352.552 82.376 352.128 82.552C351.704 82.736 351.208 82.828 350.64 82.828ZM358.147 74.536C358.147 74.392 358.131 74.272 358.099 74.176C358.067 74.08 358.019 74.008 357.955 73.96C357.891 73.912 357.803 73.888 357.691 73.888C357.555 73.888 357.431 73.948 357.319 74.068C357.215 74.18 357.123 74.328 357.043 74.512C356.963 74.696 356.895 74.892 356.839 75.1C356.791 75.308 356.751 75.512 356.719 75.712C356.695 75.912 356.683 76.084 356.683 76.228C356.683 76.372 356.699 76.492 356.731 76.588C356.763 76.684 356.811 76.756 356.875 76.804C356.939 76.852 357.023 76.876 357.127 76.876C357.263 76.876 357.387 76.82 357.499 76.708C357.611 76.588 357.703 76.436 357.775 76.252C357.855 76.068 357.923 75.872 357.979 75.664C358.035 75.456 358.075 75.252 358.099 75.052C358.131 74.852 358.147 74.68 358.147 74.536ZM355.363 75.928C355.363 75.608 355.411 75.284 355.507 74.956C355.603 74.62 355.747 74.316 355.939 74.044C356.131 73.764 356.375 73.54 356.671 73.372C356.967 73.196 357.311 73.108 357.703 73.108C358.079 73.108 358.395 73.18 358.651 73.324C358.915 73.46 359.115 73.66 359.251 73.924C359.395 74.18 359.467 74.484 359.467 74.836C359.467 75.156 359.419 75.48 359.323 75.808C359.227 76.136 359.079 76.44 358.879 76.72C358.687 77 358.443 77.228 358.147 77.404C357.859 77.572 357.515 77.656 357.115 77.656C356.747 77.656 356.431 77.588 356.167 77.452C355.903 77.308 355.703 77.108 355.567 76.852C355.431 76.588 355.363 76.28 355.363 75.928ZM362.323 79.096C362.323 78.944 362.307 78.824 362.275 78.736C362.243 78.64 362.195 78.568 362.131 78.52C362.067 78.472 361.983 78.448 361.879 78.448C361.743 78.448 361.619 78.508 361.507 78.628C361.403 78.74 361.311 78.888 361.231 79.072C361.151 79.256 361.083 79.452 361.027 79.66C360.971 79.868 360.931 80.072 360.907 80.272C360.883 80.472 360.871 80.644 360.871 80.788C360.871 80.932 360.883 81.052 360.907 81.148C360.939 81.244 360.987 81.316 361.051 81.364C361.115 81.412 361.203 81.436 361.315 81.436C361.451 81.436 361.571 81.38 361.675 81.268C361.787 81.148 361.883 80.996 361.963 80.812C362.043 80.628 362.111 80.432 362.167 80.224C362.223 80.016 362.263 79.812 362.287 79.612C362.311 79.412 362.323 79.24 362.323 79.096ZM359.551 80.476C359.551 80.164 359.595 79.844 359.683 79.516C359.779 79.18 359.923 78.872 360.115 78.592C360.315 78.312 360.559 78.088 360.847 77.92C361.143 77.752 361.491 77.668 361.891 77.668C362.267 77.668 362.583 77.74 362.839 77.884C363.103 78.02 363.303 78.22 363.439 78.484C363.575 78.74 363.643 79.044 363.643 79.396C363.643 79.716 363.595 80.04 363.499 80.368C363.403 80.696 363.259 81 363.067 81.28C362.875 81.56 362.631 81.788 362.335 81.964C362.039 82.132 361.691 82.216 361.291 82.216C360.923 82.216 360.607 82.144 360.343 82C360.087 81.856 359.891 81.656 359.755 81.4C359.619 81.144 359.551 80.836 359.551 80.476ZM362.899 73.48H364.063L355.939 82H354.775L362.899 73.48Z" fill="black"/>
<path d="M350.211 109.123C349.691 109.123 349.215 109.027 348.781 108.836C348.352 108.641 348.01 108.363 347.756 108.004C347.502 107.645 347.381 107.215 347.393 106.715L347.404 106.686L349.045 106.604C349.045 106.982 349.152 107.279 349.367 107.494C349.582 107.705 349.863 107.811 350.211 107.811C350.609 107.811 350.904 107.668 351.096 107.383C351.287 107.098 351.383 106.729 351.383 106.275C351.383 105.783 351.281 105.389 351.078 105.092C350.875 104.795 350.572 104.646 350.17 104.646C349.846 104.646 349.596 104.707 349.42 104.828C349.248 104.949 349.125 105.113 349.051 105.32L347.539 105.221L348.031 100.469H352.941V102.414H351.887L351.734 101.84H349.438L349.197 103.809C349.303 103.73 349.424 103.662 349.561 103.604C349.697 103.541 349.844 103.492 350 103.457C350.16 103.418 350.33 103.398 350.51 103.398C351.057 103.387 351.521 103.496 351.904 103.727C352.291 103.953 352.584 104.281 352.783 104.711C352.986 105.141 353.088 105.658 353.088 106.264C353.088 106.811 352.977 107.301 352.754 107.734C352.535 108.164 352.211 108.504 351.781 108.754C351.355 109 350.832 109.123 350.211 109.123ZM356.861 109.123C355.971 109.123 355.266 108.832 354.746 108.25C354.227 107.664 353.967 106.807 353.967 105.678V103.797C353.967 102.672 354.225 101.816 354.74 101.23C355.26 100.641 355.963 100.346 356.85 100.346C357.732 100.346 358.434 100.641 358.953 101.23C359.477 101.816 359.738 102.672 359.738 103.797V105.678C359.738 106.807 359.479 107.664 358.959 108.25C358.443 108.832 357.744 109.123 356.861 109.123ZM356.861 107.811C357.244 107.811 357.535 107.654 357.734 107.342C357.934 107.029 358.033 106.529 358.033 105.842V103.621C358.033 102.941 357.932 102.445 357.729 102.133C357.525 101.82 357.232 101.664 356.85 101.664C356.463 101.664 356.17 101.82 355.971 102.133C355.771 102.445 355.672 102.941 355.672 103.621V105.842C355.672 106.529 355.771 107.029 355.971 107.342C356.174 107.654 356.471 107.811 356.861 107.811ZM364.654 109.123C364.018 109.123 363.457 109.004 362.973 108.766C362.492 108.527 362.117 108.189 361.848 107.752C361.582 107.314 361.449 106.799 361.449 106.205C361.449 106.197 361.449 106.189 361.449 106.182C361.449 106.174 361.449 106.166 361.449 106.158H360.594V105.262H361.449V104.383H360.594V103.486H361.449V103.41C361.449 102.789 361.582 102.25 361.848 101.793C362.117 101.336 362.49 100.98 362.967 100.727C363.447 100.473 364.006 100.346 364.643 100.346C364.877 100.346 365.105 100.361 365.328 100.393C365.555 100.424 365.801 100.469 366.066 100.527L365.943 101.869C365.74 101.807 365.527 101.758 365.305 101.723C365.082 101.684 364.861 101.664 364.643 101.664C364.182 101.664 363.818 101.818 363.553 102.127C363.291 102.436 363.16 102.859 363.16 103.398V103.486H365.668V104.383H363.16V105.262H365.668V106.158H363.16V106.205C363.164 106.549 363.225 106.84 363.342 107.078C363.459 107.316 363.629 107.498 363.852 107.623C364.074 107.748 364.342 107.811 364.654 107.811C365.107 107.811 365.537 107.744 365.943 107.611L366.066 108.941C365.605 109.062 365.135 109.123 364.654 109.123Z" fill="black"/>
<path d="M0.380859 137V135.975L1.82227 135.799V130.021H0.363281V129.043L3.52734 128.469V135.799L4.96875 135.975V137H0.380859ZM8.77148 137.123C7.88086 137.123 7.17578 136.832 6.65625 136.25C6.13672 135.664 5.87695 134.807 5.87695 133.678V131.797C5.87695 130.672 6.13477 129.816 6.65039 129.23C7.16992 128.641 7.87305 128.346 8.75977 128.346C9.64258 128.346 10.3438 128.641 10.8633 129.23C11.3867 129.816 11.6484 130.672 11.6484 131.797V133.678C11.6484 134.807 11.3887 135.664 10.8691 136.25C10.3535 136.832 9.6543 137.123 8.77148 137.123ZM8.77148 135.811C9.1543 135.811 9.44531 135.654 9.64453 135.342C9.84375 135.029 9.94336 134.529 9.94336 133.842V131.621C9.94336 130.941 9.8418 130.445 9.63867 130.133C9.43555 129.82 9.14258 129.664 8.75977 129.664C8.37305 129.664 8.08008 129.82 7.88086 130.133C7.68164 130.445 7.58203 130.941 7.58203 131.621V133.842C7.58203 134.529 7.68164 135.029 7.88086 135.342C8.08398 135.654 8.38086 135.811 8.77148 135.811ZM15.627 137.123C14.7363 137.123 14.0312 136.832 13.5117 136.25C12.9922 135.664 12.7324 134.807 12.7324 133.678V131.797C12.7324 130.672 12.9902 129.816 13.5059 129.23C14.0254 128.641 14.7285 128.346 15.6152 128.346C16.498 128.346 17.1992 128.641 17.7188 129.23C18.2422 129.816 18.5039 130.672 18.5039 131.797V133.678C18.5039 134.807 18.2441 135.664 17.7246 136.25C17.209 136.832 16.5098 137.123 15.627 137.123ZM15.627 135.811C16.0098 135.811 16.3008 135.654 16.5 135.342C16.6992 135.029 16.7988 134.529 16.7988 133.842V131.621C16.7988 130.941 16.6973 130.445 16.4941 130.133C16.291 129.82 15.998 129.664 15.6152 129.664C15.2285 129.664 14.9355 129.82 14.7363 130.133C14.5371 130.445 14.4375 130.941 14.4375 131.621V133.842C14.4375 134.529 14.5371 135.029 14.7363 135.342C14.9395 135.654 15.2363 135.811 15.627 135.811ZM22.4824 137.123C21.5918 137.123 20.8867 136.832 20.3672 136.25C19.8477 135.664 19.5879 134.807 19.5879 133.678V131.797C19.5879 130.672 19.8457 129.816 20.3613 129.23C20.8809 128.641 21.584 128.346 22.4707 128.346C23.3535 128.346 24.0547 128.641 24.5742 129.23C25.0977 129.816 25.3594 130.672 25.3594 131.797V133.678C25.3594 134.807 25.0996 135.664 24.5801 136.25C24.0645 136.832 23.3652 137.123 22.4824 137.123ZM22.4824 135.811C22.8652 135.811 23.1562 135.654 23.3555 135.342C23.5547 135.029 23.6543 134.529 23.6543 133.842V131.621C23.6543 130.941 23.5527 130.445 23.3496 130.133C23.1465 129.82 22.8535 129.664 22.4707 129.664C22.084 129.664 21.791 129.82 21.5918 130.133C21.3926 130.445 21.293 130.941 21.293 131.621V133.842C21.293 134.529 21.3926 135.029 21.5918 135.342C21.7949 135.654 22.0918 135.811 22.4824 135.811ZM30.2754 137.123C29.6387 137.123 29.0781 137.004 28.5938 136.766C28.1133 136.527 27.7383 136.189 27.4688 135.752C27.2031 135.314 27.0703 134.799 27.0703 134.205C27.0703 134.197 27.0703 134.189 27.0703 134.182C27.0703 134.174 27.0703 134.166 27.0703 134.158H26.2148V133.262H27.0703V132.383H26.2148V131.486H27.0703V131.41C27.0703 130.789 27.2031 130.25 27.4688 129.793C27.7383 129.336 28.1113 128.98 28.5879 128.727C29.0684 128.473 29.627 128.346 30.2637 128.346C30.498 128.346 30.7266 128.361 30.9492 128.393C31.1758 128.424 31.4219 128.469 31.6875 128.527L31.5645 129.869C31.3613 129.807 31.1484 129.758 30.9258 129.723C30.7031 129.684 30.4824 129.664 30.2637 129.664C29.8027 129.664 29.4395 129.818 29.1738 130.127C28.9121 130.436 28.7812 130.859 28.7812 131.398V131.486H31.2891V132.383H28.7812V133.262H31.2891V134.158H28.7812V134.205C28.7852 134.549 28.8457 134.84 28.9629 135.078C29.0801 135.316 29.25 135.498 29.4727 135.623C29.6953 135.748 29.9629 135.811 30.2754 135.811C30.7285 135.811 31.1582 135.744 31.5645 135.611L31.6875 136.941C31.2266 137.062 30.7559 137.123 30.2754 137.123Z" fill="black"/>
<path d="M1.38086 57V55.9746L2.82227 55.7988V50.0215H1.36328V49.043L4.52734 48.4688V55.7988L5.96875 55.9746V57H1.38086ZM9.77148 57.123C8.88086 57.123 8.17578 56.832 7.65625 56.25C7.13672 55.6641 6.87695 54.8066 6.87695 53.6777V51.7969C6.87695 50.6719 7.13477 49.8164 7.65039 49.2305C8.16992 48.6406 8.87305 48.3457 9.75977 48.3457C10.6426 48.3457 11.3438 48.6406 11.8633 49.2305C12.3867 49.8164 12.6484 50.6719 12.6484 51.7969V53.6777C12.6484 54.8066 12.3887 55.6641 11.8691 56.25C11.3535 56.832 10.6543 57.123 9.77148 57.123ZM9.77148 55.8105C10.1543 55.8105 10.4453 55.6543 10.6445 55.3418C10.8438 55.0293 10.9434 54.5293 10.9434 53.8418V51.6211C10.9434 50.9414 10.8418 50.4453 10.6387 50.1328C10.4355 49.8203 10.1426 49.6641 9.75977 49.6641C9.37305 49.6641 9.08008 49.8203 8.88086 50.1328C8.68164 50.4453 8.58203 50.9414 8.58203 51.6211V53.8418C8.58203 54.5293 8.68164 55.0293 8.88086 55.3418C9.08398 55.6543 9.38086 55.8105 9.77148 55.8105ZM16.375 57.123C15.8555 57.123 15.3789 57.0273 14.9453 56.8359C14.5156 56.6406 14.1738 56.3633 13.9199 56.0039C13.666 55.6445 13.5449 55.2148 13.5566 54.7148L13.5684 54.6855L15.209 54.6035C15.209 54.9824 15.3164 55.2793 15.5312 55.4941C15.7461 55.7051 16.0273 55.8105 16.375 55.8105C16.7734 55.8105 17.0684 55.668 17.2598 55.3828C17.4512 55.0977 17.5469 54.7285 17.5469 54.2754C17.5469 53.7832 17.4453 53.3887 17.2422 53.0918C17.0391 52.7949 16.7363 52.6465 16.334 52.6465C16.0098 52.6465 15.7598 52.707 15.584 52.8281C15.4121 52.9492 15.2891 53.1133 15.2148 53.3203L13.7031 53.2207L14.1953 48.4688H19.1055V50.4141H18.0508L17.8984 49.8398H15.6016L15.3613 51.8086C15.4668 51.7305 15.5879 51.6621 15.7246 51.6035C15.8613 51.541 16.0078 51.4922 16.1641 51.457C16.3242 51.418 16.4941 51.3984 16.6738 51.3984C17.2207 51.3867 17.6855 51.4961 18.0684 51.7266C18.4551 51.9531 18.748 52.2812 18.9473 52.7109C19.1504 53.1406 19.252 53.6582 19.252 54.2637C19.252 54.8105 19.1406 55.3008 18.918 55.7344C18.6992 56.1641 18.375 56.5039 17.9453 56.7539C17.5195 57 16.9961 57.123 16.375 57.123ZM23.0254 57.123C22.1348 57.123 21.4297 56.832 20.9102 56.25C20.3906 55.6641 20.1309 54.8066 20.1309 53.6777V51.7969C20.1309 50.6719 20.3887 49.8164 20.9043 49.2305C21.4238 48.6406 22.127 48.3457 23.0137 48.3457C23.8965 48.3457 24.5977 48.6406 25.1172 49.2305C25.6406 49.8164 25.9023 50.6719 25.9023 51.7969V53.6777C25.9023 54.8066 25.6426 55.6641 25.123 56.25C24.6074 56.832 23.9082 57.123 23.0254 57.123ZM23.0254 55.8105C23.4082 55.8105 23.6992 55.6543 23.8984 55.3418C24.0977 55.0293 24.1973 54.5293 24.1973 53.8418V51.6211C24.1973 50.9414 24.0957 50.4453 23.8926 50.1328C23.6895 49.8203 23.3965 49.6641 23.0137 49.6641C22.627 49.6641 22.334 49.8203 22.1348 50.1328C21.9355 50.4453 21.8359 50.9414 21.8359 51.6211V53.8418C21.8359 54.5293 21.9355 55.0293 22.1348 55.3418C22.3379 55.6543 22.6348 55.8105 23.0254 55.8105ZM30.8184 57.123C30.1816 57.123 29.6211 57.0039 29.1367 56.7656C28.6562 56.5273 28.2812 56.1895 28.0117 55.752C27.7461 55.3145 27.6133 54.7988 27.6133 54.2051C27.6133 54.1973 27.6133 54.1895 27.6133 54.1816C27.6133 54.1738 27.6133 54.166 27.6133 54.1582H26.7578V53.2617H27.6133V52.3828H26.7578V51.4863H27.6133V51.4102C27.6133 50.7891 27.7461 50.25 28.0117 49.793C28.2812 49.3359 28.6543 48.9805 29.1309 48.7266C29.6113 48.4727 30.1699 48.3457 30.8066 48.3457C31.041 48.3457 31.2695 48.3613 31.4922 48.3926C31.7188 48.4238 31.9648 48.4688 32.2305 48.5273L32.1074 49.8691C31.9043 49.8066 31.6914 49.7578 31.4688 49.7227C31.2461 49.6836 31.0254 49.6641 30.8066 49.6641C30.3457 49.6641 29.9824 49.8184 29.7168 50.127C29.4551 50.4355 29.3242 50.8594 29.3242 51.3984V51.4863H31.832V52.3828H29.3242V53.2617H31.832V54.1582H29.3242V54.2051C29.3281 54.5488 29.3887 54.8398 29.5059 55.0781C29.623 55.3164 29.793 55.498 30.0156 55.623C30.2383 55.748 30.5059 55.8105 30.8184 55.8105C31.2715 55.8105 31.7012 55.7441 32.1074 55.6113L32.2305 56.9414C31.7695 57.0625 31.2988 57.123 30.8184 57.123Z" fill="black"/>
</svg>
